<svg id="Layer_1" data-name="Layer 1" xmlns="http://www.w3.org/2000/svg" viewBox="0 0 294.19 314.88"><defs><style>.cls-1{fill:#445363;}</style></defs><title>Artboard 6</title><path id="_Path_" data-name="&lt;Path&gt;" class="cls-1" d="M144.75,16.07,21.44,87.26a4.69,4.69,0,0,0-2.34,4.06V233.71a4.69,4.69,0,0,0,2.34,4.06l105.71,61a4.69,4.69,0,0,0,7-4.06V157.91a4.69,4.69,0,0,0-2.34-4.06l-53.61-31a4.69,4.69,0,0,0-7,4.06v19.24a4.69,4.69,0,0,0,2.34,4.06l34.61,20v87.53l-63-36.38V103.65l102-58.87,102,58.87V221.38l-63,36.38V170.23l34.62-20a4.69,4.69,0,0,0,2.34-4.06V126.95a4.69,4.69,0,0,0-7-4.06l-53.63,31a4.69,4.69,0,0,0-2.34,4.06V294.74a4.69,4.69,0,0,0,7,4.06l105.71-61a4.69,4.69,0,0,0,2.34-4.06V91.32a4.69,4.69,0,0,0-2.34-4.06L149.44,16.07A4.69,4.69,0,0,0,144.75,16.07Z"/></svg>