<?xml version="1.0" encoding="UTF-8" standalone="no"?>
<svg width="1280px" height="840px" viewBox="0 0 1280 840" version="1.1" xmlns="http://www.w3.org/2000/svg" xmlns:xlink="http://www.w3.org/1999/xlink" style="background: #F1F2F5;">
    <!-- Generator: Sketch 41.2 (35397) - http://www.bohemiancoding.com/sketch -->
    <title>drawer closed</title>
    <desc>Created with Sketch.</desc>
    <defs>
        <rect id="path-1" x="320" y="150" width="950" height="675"></rect>
        <mask id="mask-2" maskContentUnits="userSpaceOnUse" maskUnits="objectBoundingBox" x="0" y="0" width="950" height="675" fill="white">
            <use xlink:href="#path-1"></use>
        </mask>
        <rect id="path-3" x="0" y="0" width="300" height="40"></rect>
        <mask id="mask-4" maskContentUnits="userSpaceOnUse" maskUnits="objectBoundingBox" x="0" y="0" width="300" height="40" fill="white">
            <use xlink:href="#path-3"></use>
        </mask>
        <rect id="path-5" x="0" y="0" width="300" height="40"></rect>
        <mask id="mask-6" maskContentUnits="userSpaceOnUse" maskUnits="objectBoundingBox" x="0" y="0" width="300" height="40" fill="white">
            <use xlink:href="#path-5"></use>
        </mask>
        <rect id="path-7" x="10.2007112" y="189" width="300" height="675"></rect>
        <mask id="mask-8" maskContentUnits="userSpaceOnUse" maskUnits="objectBoundingBox" x="0" y="0" width="300" height="675" fill="white">
            <use xlink:href="#path-7"></use>
        </mask>
    </defs>
    <g id="ORGANISMS" stroke="none" stroke-width="1" fill="none" fill-rule="evenodd">
        <g id="drawer-closed">
            <g id="Selector" opacity="0.3" transform="translate(310.000000, 620.000000)" stroke="#3F4C57" stroke-opacity="0.304347826" fill="#FFFFFF">
                <rect id="Rectangle-264" x="1.5" y="1.5" width="13" height="13" rx="6.5"></rect>
            </g>
            <g id="Group-2" transform="translate(300.000000, 128.000000)"></g>
            <g id="Top-Nav">
                <polygon id="White-Nav-Bar" stroke="#979797" fill="#FFFFFF" points="0 0 1280 0 1280 60 0 60"></polygon>
                <g id="Group-2" transform="translate(1185.000000, 19.000000)" fill="#435363">
                    <text id="Username" font-family="SourceSansPro-Regular, Source Sans Pro" font-size="14" font-weight="normal">
                        <tspan x="-0.770019531" y="14">Username</tspan>
                    </text>
                    <polygon id="Path-Copy" points="70.577794 7 75.0679328 14 66.0876552 14"></polygon>
                </g>
                <text id="PAGE-1-PAGE-2-PAGE-3" font-family="SourceSansPro-Semibold, Source Sans Pro" font-size="18" font-weight="500" fill="#435363">
                    <tspan x="83" y="34">PAGE 1</tspan>
                    <tspan x="136.262" y="34" font-family="SourceSansPro-Light, Source Sans Pro" font-weight="300"> </tspan>
                    <tspan x="139.844" y="34" font-family="SourceSansPro-Regular, Source Sans Pro" font-weight="normal">         </tspan>
                    <tspan x="172.568" y="34" font-family="SourceSansPro-Light, Source Sans Pro" font-weight="300">PAGE 2         PAGE 3</tspan>
                </text>
            </g>
            <use id="Rectangle-4" stroke="#979797" mask="url(#mask-2)" stroke-width="2" fill="#D8D8D8" xlink:href="#path-1"></use>
            <g id="Data-View-Header" transform="translate(320.000000, 109.000000)" stroke="#7A8389" fill="#FFFFFF">
                <rect id="button-bg" x="0" y="0" width="950" height="41"></rect>
            </g>
            <rect id="button-bg" stroke="#7A8389" fill="#FFFFFF" x="320" y="70" width="950" height="40"></rect>
            <text id="Title" font-family="SourceSansPro-Light, Source Sans Pro" font-size="21" font-weight="300" line-spacing="25" fill="#3F4C57">
                <tspan x="336" y="97">Title</tspan>
            </text>
            <text id="Tab" font-family="SourceSansPro-Light, Source Sans Pro" font-size="21" font-weight="300" line-spacing="25" fill="#3F4C57">
                <tspan x="336" y="137">Tab</tspan>
            </text>
            <path d="M325.5,149.5 L1268.5,817.5" id="Line" stroke="#979797" stroke-linecap="square"></path>
            <path d="M323.5,821.5 L1271.5,151.5" id="Line" stroke="#979797" stroke-linecap="square"></path>
            <polygon id="Polygon" stroke="#979797" fill="#D8D8D8" points="42.5 11 57 19.5 57 36.5 42.5 45 28 36.5 28 19.5"></polygon>
            <g id="Filter-Analyses-Panel" transform="translate(10.000000, 70.000000)">
                <use id="Rectangle-915-Copy-7" stroke="#979797" mask="url(#mask-4)" stroke-width="2" xlink:href="#path-3"></use>
                <text id="Title" font-family="SourceSansPro-Light, Source Sans Pro" font-size="18" font-weight="300" fill="#435363">
                    <tspan x="15" y="26">Title</tspan>
                </text>
                <path d="M0.578617613,39.5 L299.578618,39.5" id="Line-Copy-10" stroke="#979797" stroke-linecap="square" opacity="0.320000023"></path>
            </g>
            <g id="Group" transform="translate(10.000000, 110.000000)">
                <rect id="Rectangle-2" fill="#333E47" x="0" y="39" width="300" height="40"></rect>
                <use id="Rectangle-2-Copy" stroke="#979797" mask="url(#mask-6)" stroke-width="2" xlink:href="#path-5"></use>
                <path d="M0.578617613,39.5 L299.578618,39.5" id="Line-Copy-10" stroke="#979797" stroke-linecap="square" opacity="0.320000023"></path>
                <g id="Group-5" transform="translate(15.000000, 52.000000)" fill="#57C9E8">
                    <text id="COHORTS-(1)" font-family="SourceSansPro-Light, Source Sans Pro" font-size="14" font-weight="300">
                        <tspan x="24" y="14">COHORTS (1)</tspan>
                    </text>
                    <path d="M11.4,8 L5.6,8 C5.048,8 5,8.447 5,9 C5,9.553 5.048,10 5.6,10 L11.4,10 C11.952,10 12,9.553 12,9 C12,8.447 11.952,8 11.4,8 L11.4,8 Z M13.4,13 L5.6,13 C5.048,13 5,13.447 5,14 C5,14.553 5.048,15 5.6,15 L13.4,15 C13.952,15 14,14.553 14,14 C14,13.447 13.952,13 13.4,13 L13.4,13 Z M5.6,5 L13.4,5 C13.952,5 14,4.553 14,4 C14,3.447 13.952,3 13.4,3 L5.6,3 C5.048,3 5,3.447 5,4 C5,4.553 5.048,5 5.6,5 L5.6,5 Z M2.4,8 L0.6,8 C0.048,8 0,8.447 0,9 C0,9.553 0.048,10 0.6,10 L2.4,10 C2.952,10 3,9.553 3,9 C3,8.447 2.952,8 2.4,8 L2.4,8 Z M2.4,13 L0.6,13 C0.048,13 0,13.447 0,14 C0,14.553 0.048,15 0.6,15 L2.4,15 C2.952,15 3,14.553 3,14 C3,13.447 2.952,13 2.4,13 L2.4,13 Z M2.4,3 L0.6,3 C0.048,3 0,3.447 0,4 C0,4.553 0.048,5 0.6,5 L2.4,5 C2.952,5 3,4.553 3,4 C3,3.447 2.952,3 2.4,3 L2.4,3 Z" id="Shape"></path>
                </g>
            </g>
            <use id="Rectangle-5-Copy-2" stroke="#7A8389" mask="url(#mask-8)" stroke-width="2" fill="#FFFFFF" xlink:href="#path-7"></use>
            <text id="Primary-Filter-Copy" font-family="SourceSansPro-Regular, Source Sans Pro" font-size="14" font-weight="normal" fill="#7A8389">
                <tspan x="23" y="217">Primary Filter</tspan>
            </text>
        </g>
    </g>
</svg>