<?xml version="1.0" encoding="UTF-8" standalone="no"?>
<svg width="1280px" height="840px" viewBox="0 0 1280 840" version="1.1" xmlns="http://www.w3.org/2000/svg" xmlns:xlink="http://www.w3.org/1999/xlink" style="background: #F1F2F5;">
    <!-- Generator: Sketch 41.2 (35397) - http://www.bohemiancoding.com/sketch -->
    <title>drawer opened</title>
    <desc>Created with Sketch.</desc>
    <defs>
        <rect id="path-1" x="320" y="150" width="950" height="675"></rect>
        <mask id="mask-2" maskContentUnits="userSpaceOnUse" maskUnits="objectBoundingBox" x="0" y="0" width="950" height="675" fill="white">
            <use xlink:href="#path-1"></use>
        </mask>
        <rect id="path-3" x="0" y="0" width="300" height="40"></rect>
        <mask id="mask-4" maskContentUnits="userSpaceOnUse" maskUnits="objectBoundingBox" x="0" y="0" width="300" height="40" fill="white">
            <use xlink:href="#path-3"></use>
        </mask>
        <rect id="path-5" x="0" y="0" width="300" height="40"></rect>
        <mask id="mask-6" maskContentUnits="userSpaceOnUse" maskUnits="objectBoundingBox" x="0" y="0" width="300" height="40" fill="white">
            <use xlink:href="#path-5"></use>
        </mask>
        <path d="M2.84217094e-14,78 L43.6717597,78 L300,78 L300,188 L2.84217094e-14,188 L2.84217094e-14,78 Z" id="path-7"></path>
        <filter x="-50%" y="-50%" width="200%" height="200%" filterUnits="objectBoundingBox" id="filter-8">
            <feGaussianBlur stdDeviation="2" in="SourceAlpha" result="shadowBlurInner1"></feGaussianBlur>
            <feOffset dx="0" dy="1" in="shadowBlurInner1" result="shadowOffsetInner1"></feOffset>
            <feComposite in="shadowOffsetInner1" in2="SourceAlpha" operator="arithmetic" k2="-1" k3="1" result="shadowInnerInner1"></feComposite>
            <feColorMatrix values="0 0 0 0 0   0 0 0 0 0   0 0 0 0 0  0 0 0 0.2 0" type="matrix" in="shadowInnerInner1" result="shadowMatrixInner1"></feColorMatrix>
            <feGaussianBlur stdDeviation="2" in="SourceAlpha" result="shadowBlurInner2"></feGaussianBlur>
            <feOffset dx="0" dy="-1" in="shadowBlurInner2" result="shadowOffsetInner2"></feOffset>
            <feComposite in="shadowOffsetInner2" in2="SourceAlpha" operator="arithmetic" k2="-1" k3="1" result="shadowInnerInner2"></feComposite>
            <feColorMatrix values="0 0 0 0 0   0 0 0 0 0   0 0 0 0 0  0 0 0 0.203521286 0" type="matrix" in="shadowInnerInner2" result="shadowMatrixInner2"></feColorMatrix>
            <feMerge>
                <feMergeNode in="shadowMatrixInner1"></feMergeNode>
                <feMergeNode in="shadowMatrixInner2"></feMergeNode>
            </feMerge>
        </filter>
        <rect id="path-9" x="0" y="0" width="14" height="14" rx="2"></rect>
        <filter x="-50%" y="-50%" width="200%" height="200%" filterUnits="objectBoundingBox" id="filter-10">
            <feOffset dx="0" dy="2" in="SourceAlpha" result="shadowOffsetOuter1"></feOffset>
            <feGaussianBlur stdDeviation="1" in="shadowOffsetOuter1" result="shadowBlurOuter1"></feGaussianBlur>
            <feColorMatrix values="0 0 0 0 0   0 0 0 0 0   0 0 0 0 0  0 0 0 0.24 0" type="matrix" in="shadowBlurOuter1" result="shadowMatrixOuter1"></feColorMatrix>
            <feOffset dx="0" dy="0" in="SourceAlpha" result="shadowOffsetOuter2"></feOffset>
            <feGaussianBlur stdDeviation="1" in="shadowOffsetOuter2" result="shadowBlurOuter2"></feGaussianBlur>
            <feColorMatrix values="0 0 0 0 0   0 0 0 0 0   0 0 0 0 0  0 0 0 0.12 0" type="matrix" in="shadowBlurOuter2" result="shadowMatrixOuter2"></feColorMatrix>
            <feMerge>
                <feMergeNode in="shadowMatrixOuter1"></feMergeNode>
                <feMergeNode in="shadowMatrixOuter2"></feMergeNode>
            </feMerge>
        </filter>
        <path d="M1.36724814,6.40408475 C1.36724814,5.85208289 1.81408651,5.40459697 2.36858473,5.40459698 L13.7673345,5.4045971 C14.8733604,5.40459711 15.7699715,6.2997658 15.7699715,7.40543986 L15.7699715,7.5765469 C15.7699715,8.68158183 14.8690166,9.57738963 13.7673345,9.57738962 L2.36858473,9.57738951 C1.8155618,9.5773895 1.36724814,9.1308276 1.36724814,8.57790172 L1.36724814,6.40408475 Z" id="path-11"></path>
        <mask id="mask-12" maskContentUnits="userSpaceOnUse" maskUnits="objectBoundingBox" x="0" y="0" width="14.4027233" height="4.17279264" fill="white">
            <use xlink:href="#path-11"></use>
        </mask>
        <rect id="path-13" x="10.2007112" y="297" width="300" height="556"></rect>
        <mask id="mask-14" maskContentUnits="userSpaceOnUse" maskUnits="objectBoundingBox" x="0" y="0" width="300" height="556" fill="white">
            <use xlink:href="#path-13"></use>
        </mask>
    </defs>
    <g id="ORGANISMS" stroke="none" stroke-width="1" fill="none" fill-rule="evenodd">
        <g id="drawer-opened">
            <g id="Selector" opacity="0.3" transform="translate(310.000000, 620.000000)" stroke="#3F4C57" stroke-opacity="0.304347826" fill="#FFFFFF">
                <rect id="Rectangle-264" x="1.5" y="1.5" width="13" height="13" rx="6.5"></rect>
            </g>
            <g id="Group-2" transform="translate(300.000000, 128.000000)"></g>
            <g id="Top-Nav">
                <polygon id="White-Nav-Bar" stroke="#979797" fill="#FFFFFF" points="0 0 1280 0 1280 60 0 60"></polygon>
                <g id="Group-2" transform="translate(1185.000000, 19.000000)" fill="#435363">
                    <text id="Username" font-family="SourceSansPro-Regular, Source Sans Pro" font-size="14" font-weight="normal">
                        <tspan x="-0.770019531" y="14">Username</tspan>
                    </text>
                    <polygon id="Path-Copy" points="70.577794 7 75.0679328 14 66.0876552 14"></polygon>
                </g>
                <text id="PAGE-1-PAGE-2-PAGE-3" font-family="SourceSansPro-Semibold, Source Sans Pro" font-size="18" font-weight="500" fill="#435363">
                    <tspan x="83" y="34">PAGE 1</tspan>
                    <tspan x="136.262" y="34" font-family="SourceSansPro-Light, Source Sans Pro" font-weight="300"> </tspan>
                    <tspan x="139.844" y="34" font-family="SourceSansPro-Regular, Source Sans Pro" font-weight="normal">         </tspan>
                    <tspan x="172.568" y="34" font-family="SourceSansPro-Light, Source Sans Pro" font-weight="300">PAGE 2         PAGE 3</tspan>
                </text>
            </g>
            <use id="Rectangle-4" stroke="#979797" mask="url(#mask-2)" stroke-width="2" fill="#D8D8D8" xlink:href="#path-1"></use>
            <g id="Data-View-Header" transform="translate(320.000000, 109.000000)" stroke="#7A8389" fill="#FFFFFF">
                <rect id="button-bg" x="0" y="0" width="950" height="41"></rect>
            </g>
            <rect id="button-bg" stroke="#7A8389" fill="#FFFFFF" x="320" y="70" width="950" height="40"></rect>
            <text id="Title" font-family="SourceSansPro-Light, Source Sans Pro" font-size="21" font-weight="300" line-spacing="25" fill="#3F4C57">
                <tspan x="336" y="97">Title</tspan>
            </text>
            <text id="Tab" font-family="SourceSansPro-Light, Source Sans Pro" font-size="21" font-weight="300" line-spacing="25" fill="#3F4C57">
                <tspan x="336" y="137">Tab</tspan>
            </text>
            <path d="M325.5,149.5 L1268.5,817.5" id="Line" stroke="#979797" stroke-linecap="square"></path>
            <path d="M323.5,821.5 L1271.5,151.5" id="Line" stroke="#979797" stroke-linecap="square"></path>
            <polygon id="Polygon" stroke="#979797" fill="#D8D8D8" points="42.5 11 57 19.5 57 36.5 42.5 45 28 36.5 28 19.5"></polygon>
            <g id="Filter-Analyses-Panel" transform="translate(10.000000, 70.000000)">
                <use id="Rectangle-915-Copy-7" stroke="#979797" mask="url(#mask-4)" stroke-width="2" xlink:href="#path-3"></use>
                <text id="Title" font-family="SourceSansPro-Light, Source Sans Pro" font-size="18" font-weight="300" fill="#435363">
                    <tspan x="15" y="26">Title</tspan>
                </text>
                <path d="M0.578617613,39.5 L299.578618,39.5" id="Line-Copy-10" stroke="#979797" stroke-linecap="square" opacity="0.320000023"></path>
            </g>
            <g id="Group" transform="translate(10.000000, 110.000000)">
                <rect id="Rectangle-2" fill="#333E47" x="0" y="39" width="300" height="40"></rect>
                <use id="Rectangle-2-Copy" stroke="#979797" mask="url(#mask-6)" stroke-width="2" xlink:href="#path-5"></use>
                <path d="M0.578617613,39.5 L299.578618,39.5" id="Line-Copy-10" stroke="#979797" stroke-linecap="square" opacity="0.320000023"></path>
                <g id="Group-5" transform="translate(15.000000, 52.000000)" fill="#57C9E8">
                    <text id="COHORTS-(1)" font-family="SourceSansPro-Light, Source Sans Pro" font-size="14" font-weight="300">
                        <tspan x="24" y="14">COHORTS (1)</tspan>
                    </text>
                    <path d="M11.4,8 L5.6,8 C5.048,8 5,8.447 5,9 C5,9.553 5.048,10 5.6,10 L11.4,10 C11.952,10 12,9.553 12,9 C12,8.447 11.952,8 11.4,8 L11.4,8 Z M13.4,13 L5.6,13 C5.048,13 5,13.447 5,14 C5,14.553 5.048,15 5.6,15 L13.4,15 C13.952,15 14,14.553 14,14 C14,13.447 13.952,13 13.4,13 L13.4,13 Z M5.6,5 L13.4,5 C13.952,5 14,4.553 14,4 C14,3.447 13.952,3 13.4,3 L5.6,3 C5.048,3 5,3.447 5,4 C5,4.553 5.048,5 5.6,5 L5.6,5 Z M2.4,8 L0.6,8 C0.048,8 0,8.447 0,9 C0,9.553 0.048,10 0.6,10 L2.4,10 C2.952,10 3,9.553 3,9 C3,8.447 2.952,8 2.4,8 L2.4,8 Z M2.4,13 L0.6,13 C0.048,13 0,13.447 0,14 C0,14.553 0.048,15 0.6,15 L2.4,15 C2.952,15 3,14.553 3,14 C3,13.447 2.952,13 2.4,13 L2.4,13 Z M2.4,3 L0.6,3 C0.048,3 0,3.447 0,4 C0,4.553 0.048,5 0.6,5 L2.4,5 C2.952,5 3,4.553 3,4 C3,3.447 2.952,3 2.4,3 L2.4,3 Z" id="Shape"></path>
                </g>
                <g id="Rectangle-2910-Copy-9">
                    <use fill="#333E47" fill-rule="evenodd" xlink:href="#path-7"></use>
                    <use fill="black" fill-opacity="1" filter="url(#filter-8)" xlink:href="#path-7"></use>
                </g>
                <g id="Group-8" transform="translate(205.000000, 170.000000)">
                    <g id="Group-3">
                        <g id="button-bg">
                            <use fill="black" fill-opacity="1" filter="url(#filter-10)" xlink:href="#path-9"></use>
                            <use fill="#57C9E8" fill-rule="evenodd" xlink:href="#path-9"></use>
                        </g>
                        <polygon id="+" fill="#FFFFFF" points="6.81101978 10.7465253 7.54481335 10.7465253 7.54481335 7.16970353 10.8558331 7.16970353 10.8558331 6.49348847 7.54481335 6.49348847 7.54481335 2.91666667 6.81101978 2.91666667 6.81101978 6.49348847 3.5 6.49348847 3.5 7.16970353 6.81101978 7.16970353"></polygon>
                    </g>
                    <text id="NEW-COHORT" font-family="SourceSansPro-Light, Source Sans Pro" font-size="11" font-weight="300" fill="#57C9E8">
                        <tspan x="18" y="11">NEW COHORT</tspan>
                    </text>
                </g>
                <rect id="Rectangle-2906-Copy-6" fill="#E8E8E8" opacity="0.0929920709" x="0" y="100" width="300" height="22"></rect>
                <rect id="Rectangle-2906-Copy-7" fill="#E8E8E8" opacity="0.0929920709" x="0" y="144" width="300" height="22"></rect>
                <g id="Group-4" transform="translate(15.000000, 80.000000)">
                    <text id="Default-Cohort" font-family="SourceSansPro-Regular, Source Sans Pro" font-size="14" font-weight="normal" fill="#54CAE9">
                        <tspan x="0" y="14">Default Cohort</tspan>
                    </text>
                    <text id="1,965" font-family="SourceSansPro-Regular, Source Sans Pro" font-size="14" font-weight="normal" fill="#54CAE9">
                        <tspan x="156.682" y="14">1,965</tspan>
                    </text>
                    <g id="Analysis-Edit-Selected" transform="translate(209.000000, 0.000000)">
                        <path d="M57.9445412,15.6176471 L51.0621882,15.6176471 C50.6400706,15.6176471 50.2974824,15.2750588 50.2974824,14.8529412 L50.2974824,4.91176471 L58.7092471,4.91176471 L58.7092471,14.8529412 C58.7092471,15.2750588 58.3666588,15.6176471 57.9445412,15.6176471 L57.9445412,15.6176471 Z" id="Stroke-1" stroke="#57C9E8"></path>
                        <path d="M48.3857176,4.87077647 L60.6210118,4.87077647" id="Stroke-3" stroke="#57C9E8" stroke-width="1.009" stroke-linecap="round"></path>
                        <path d="M52.8889176,7.48117647 L52.8889176,13.0482353" id="Stroke-5" stroke="#57C9E8" stroke-linecap="round"></path>
                        <path d="M56.1177353,7.48117647 L56.1177353,13.0482353" id="Stroke-7" stroke="#57C9E8" stroke-linecap="round"></path>
                        <polyline id="Stroke-9" stroke="#57C9E8" stroke-linecap="round" stroke-linejoin="round" points="56.1177353 4.6978 56.1177353 3.25021176 52.8891471 3.25021176 52.8891471 4.6978"></polyline>
                        <polygon id="Triangle-12" stroke="#57C9E8" stroke-linejoin="round" transform="translate(2.645187, 13.437453) rotate(-135.000000) translate(-2.645187, -13.437453) " points="2.64518694 11.6437689 4.23788894 15.2311377 1.05248502 15.2311377"></polygon>
                        <path d="M9.55160611,4.04152249 L11.6911301,6.17364333" id="Line" stroke="#57C9E8"></path>
                        <use id="Rectangle-536" stroke="#57C9E8" mask="url(#mask-12)" stroke-width="2" stroke-linecap="round" stroke-linejoin="round" transform="translate(8.568610, 7.490993) rotate(-45.000000) translate(-8.568610, -7.490993) " xlink:href="#path-11"></use>
                        <path d="M37.9623121,9.00707429 C37.9623121,8.99260763 37.9623121,8.99260763 37.9478935,8.97814096 C37.9478935,8.96367429 37.9334749,8.94920763 37.9190563,8.93474096 C37.9190563,8.93474096 37.9190563,8.92027429 37.9046377,8.92027429 C37.8902191,8.90580762 37.8758005,8.87687429 37.861382,8.86240762 L35.6985935,6.69240755 C35.6841749,6.67794088 35.6697563,6.66347421 35.6409191,6.64900755 L35.6265006,6.64900755 C35.612082,6.63454088 35.5976634,6.63454088 35.5832448,6.62007421 L35.5688262,6.62007421 C35.5544076,6.62007421 35.539989,6.60560754 35.5255704,6.60560754 L35.4534775,6.60560754 L32.9302243,6.60560754 L32.9302243,5.52060751 L32.9302243,5.44827417 C32.9302243,5.4338075 32.9158057,5.41934084 32.9158057,5.40487417 C32.9158057,5.3904075 32.9158057,5.3904075 32.9013871,5.37594083 C32.9013871,5.36147417 32.8869685,5.3470075 32.8725499,5.33254083 C32.8725499,5.33254083 32.8725499,5.31807417 32.8581314,5.31807417 C32.8437128,5.3036075 32.8292942,5.27467416 32.8148756,5.2602075 L30.6520871,3.09020742 C30.6376685,3.07574075 30.62325,3.06127409 30.5944128,3.04680742 L30.5799942,3.04680742 C30.5655756,3.03234075 30.551157,3.03234075 30.5367384,3.01787408 L30.5223198,3.01787408 C30.5079012,3.01787408 30.4934827,3.00340742 30.4790641,3.00340742 L30.4069711,3.00340742 L25.3604647,3.00340742 C25.1586045,2.97447408 25,3.13360742 25,3.33614076 L25,12.0161411 C25,12.2186744 25.1586045,12.3778077 25.3604647,12.3778077 L25.7209295,12.3778077 L25.7209295,13.1011411 C25.7209295,13.8968078 26.369766,14.5478078 27.1627884,14.5478078 L28.4604615,14.5478078 L27.9846481,15.0252078 C27.8404622,15.1698745 27.8404622,15.4013412 27.9846481,15.5315412 C28.056741,15.6038745 28.1432525,15.6328079 28.2441827,15.6328079 C28.3451128,15.6328079 28.4316243,15.6038745 28.5037173,15.5315412 L29.5851115,14.4465412 C29.5995301,14.4320745 29.6139487,14.4176078 29.6283673,14.3886745 C29.6283673,14.3742078 29.6427859,14.3742078 29.6427859,14.3597411 C29.6427859,14.3452745 29.6572045,14.3308078 29.6572045,14.3163411 C29.6572045,14.3018745 29.671623,14.2874078 29.671623,14.2874078 C29.671623,14.2729411 29.6860416,14.2729411 29.6860416,14.2584745 C29.7004602,14.2150745 29.7004602,14.1572078 29.6860416,14.1138078 C29.6860416,14.0993411 29.6860416,14.0993411 29.671623,14.0848745 C29.671623,14.0704078 29.671623,14.0559411 29.6572045,14.0559411 C29.6572045,14.0414745 29.6427859,14.0270078 29.6427859,14.0125411 C29.6427859,13.9980745 29.6283673,13.9980745 29.6283673,13.9836078 C29.6139487,13.9691411 29.5995301,13.9402078 29.5851115,13.9257411 L28.5037173,12.8407411 C28.3595314,12.6960744 28.128834,12.6960744 27.9990666,12.8407411 C27.8548807,12.9854078 27.8548807,13.2168744 27.9990666,13.3470744 L28.2586013,13.6074745 L28.4604615,13.8244745 L27.1627884,13.8244745 C26.7590679,13.8244745 26.441859,13.5062078 26.441859,13.1011411 L26.441859,12.3778077 L30.0465064,12.3778077 L30.0465064,15.6328079 C30.0465064,15.8353412 30.2051109,15.9944745 30.4069711,15.9944745 L37.6162659,15.9944745 C37.8181262,15.9944745 37.9767307,15.8353412 37.9767307,15.6328079 L37.9767307,9.12280763 L37.9767307,9.0504743 C37.9623121,9.03600763 37.9623121,9.02154096 37.9623121,9.00707429 L37.9623121,9.00707429 Z M35.8139422,7.82080759 L36.7511506,8.76114095 L35.8139422,8.76114095 L35.8139422,7.82080759 L35.8139422,7.82080759 Z M30.7674359,4.20414079 L31.7046442,5.14447416 L30.7674359,5.14447416 L30.7674359,4.20414079 L30.7674359,4.20414079 Z M25.7209295,11.6544744 L25.7209295,3.69780744 L30.0465064,3.69780744 L30.0465064,5.50614084 C30.0465064,5.70867418 30.2051109,5.86780752 30.4069711,5.86780752 L32.2092948,5.86780752 L32.2092948,11.6544744 L25.7209295,11.6544744 L25.7209295,11.6544744 Z M37.2558012,15.2711412 L30.7674359,15.2711412 L30.7674359,12.3778077 L32.5697596,12.3778077 C32.7716198,12.3778077 32.9302243,12.2186744 32.9302243,12.0161411 L32.9302243,7.31447424 L35.0930127,7.31447424 L35.0930127,9.12280763 C35.0930127,9.32534097 35.2516172,9.48447431 35.4534775,9.48447431 L37.2558012,9.48447431 L37.2558012,15.2711412 L37.2558012,15.2711412 Z" id="Imported-Layers-Copy-5" fill="#57C9E8"></path>
                    </g>
                </g>
            </g>
            <use id="Rectangle-5-Copy-2" stroke="#7A8389" mask="url(#mask-14)" stroke-width="2" fill="#FFFFFF" xlink:href="#path-13"></use>
            <text id="Primary-Filter-Copy" font-family="SourceSansPro-Regular, Source Sans Pro" font-size="14" font-weight="normal" fill="#7A8389">
                <tspan x="27" y="327">Primary Filter</tspan>
            </text>
        </g>
    </g>
</svg>