<?xml version="1.0" encoding="UTF-8" standalone="no"?>
<svg width="1280px" height="840px" viewBox="0 0 1280 840" version="1.1" xmlns="http://www.w3.org/2000/svg" xmlns:xlink="http://www.w3.org/1999/xlink" style="background: #F1F2F5;">
    <!-- Generator: Sketch 41.2 (35397) - http://www.bohemiancoding.com/sketch -->
    <title>layout worklist collapse</title>
    <desc>Created with Sketch.</desc>
    <defs>
        <rect id="path-1" x="80" y="174" width="1191" height="658"></rect>
        <mask id="mask-2" maskContentUnits="userSpaceOnUse" maskUnits="objectBoundingBox" x="0" y="0" width="1191" height="658" fill="white">
            <use xlink:href="#path-1"></use>
        </mask>
    </defs>
    <g id="ORGANISMS" stroke="none" stroke-width="1" fill="none" fill-rule="evenodd">
        <g id="layout-worklist-collapse">
            <rect id="Rectangle-2" fill="#FDFDFD" x="-7" y="-14" width="1287" height="855"></rect>
            <rect id="Sub-Panel" stroke="#7A8389" fill="#FFFFFF" x="10" y="71" width="1260" height="40"></rect>
            <text id="Secondary-Filtered-E" font-family="SourceSansPro-Regular, Source Sans Pro" font-size="14" font-weight="normal" fill="#7A8389">
                <tspan x="23" y="97">Secondary Filtered Elements</tspan>
            </text>
            <g id="Selector" opacity="0.3" transform="translate(310.000000, 620.000000)" stroke="#3F4C57" stroke-opacity="0.304347826" fill="#FFFFFF">
                <rect id="Rectangle-264" x="1.5" y="1.5" width="13" height="13" rx="6.5"></rect>
            </g>
            <g id="Group-2" transform="translate(10.000000, 121.000000)" stroke="#7A8389" fill="#FFFFFF">
                <polygon id="SidePanel-Copy" points="70 0 1260 0 1260 35.0177557 1260 40 70 40"></polygon>
                <rect id="SidePanel-Copy-2" x="0" y="0" width="60" height="737"></rect>
            </g>
            <g id="Top-Nav">
                <polygon id="White-Nav-Bar" stroke="#979797" fill="#FFFFFF" points="0 0 1280 0 1280 60 0 60"></polygon>
                <g id="Group-2" transform="translate(1185.000000, 19.000000)" fill="#435363">
                    <text id="Username" font-family="SourceSansPro-Regular, Source Sans Pro" font-size="14" font-weight="normal">
                        <tspan x="-0.770019531" y="14">Username</tspan>
                    </text>
                    <polygon id="Path-Copy" points="70.577794 7 75.0679328 14 66.0876552 14"></polygon>
                </g>
                <text id="PAGE-1-PAGE-2-PAGE-3" font-family="SourceSansPro-Semibold, Source Sans Pro" font-size="18" font-weight="500" fill="#435363">
                    <tspan x="83" y="34">PAGE 1</tspan>
                    <tspan x="136.262" y="34" font-family="SourceSansPro-Light, Source Sans Pro" font-weight="300"> </tspan>
                    <tspan x="139.844" y="34" font-family="SourceSansPro-Regular, Source Sans Pro" font-weight="normal">         </tspan>
                    <tspan x="172.568" y="34" font-family="SourceSansPro-Light, Source Sans Pro" font-weight="300">PAGE 2         PAGE 3</tspan>
                </text>
            </g>
            <text id="Other-Actions" font-family="SourceSansPro-Regular, Source Sans Pro" font-size="14" font-weight="normal" fill="#7A8389">
                <tspan x="90" y="147">Other Actions</tspan>
            </text>
            <use id="Rectangle-4" stroke="#979797" mask="url(#mask-2)" stroke-width="2" fill="#D8D8D8" xlink:href="#path-1"></use>
            <path d="M80.5,176.5 L1268.5,830.5" id="Line" stroke="#979797" stroke-linecap="square"></path>
            <path d="M81.5,828.5 L1267.5,177.5" id="Line" stroke="#979797" stroke-linecap="square"></path>
            <polygon id="Polygon" stroke="#979797" fill="#D8D8D8" points="42.5 11 57 19.5 57 36.5 42.5 45 28 36.5 28 19.5"></polygon>
            <path d="M43.9892814,147.437025 L37.0091477,140.787233 L43.9892814,134.137441 C44.2978573,133.843044 44.2471996,133.406531 43.8776167,133.16102 C43.5080337,132.915508 42.9567914,132.955309 42.6482155,133.249274 L35.2026306,140.343149 C35.0669988,140.471637 35,140.629543 35,140.787233 C35,140.945139 35.0669988,141.102829 35.2026306,141.231317 L42.6482155,148.325192 C42.9567914,148.619157 43.5077614,148.658958 43.8776167,148.413447 C44.2482891,148.167503 44.298402,147.731855 43.9892814,147.437025" id="Imported-Layers-Copy-27" fill="#57C9E8" transform="translate(39.595986, 140.787233) scale(-1, -1) translate(-39.595986, -140.787233) "></path>
            <text id="WORKLIST" font-family="SourceSansPro-Regular, Source Sans Pro" font-size="14" font-weight="normal" line-spacing="32" fill="#7A8389">
                <tspan x="27.407" y="165">LIST</tspan>
            </text>
        </g>
    </g>
</svg>