<?xml version="1.0" encoding="UTF-8" standalone="no"?>
<svg width="1280px" height="840px" viewBox="0 0 1280 840" version="1.1" xmlns="http://www.w3.org/2000/svg" xmlns:xlink="http://www.w3.org/1999/xlink" style="background: #F1F2F5;">
    <!-- Generator: Sketch 41.2 (35397) - http://www.bohemiancoding.com/sketch -->
    <title>layout filter</title>
    <desc>Created with Sketch.</desc>
    <defs>
        <rect id="path-1" x="320" y="150" width="950" height="683"></rect>
        <mask id="mask-2" maskContentUnits="userSpaceOnUse" maskUnits="objectBoundingBox" x="0" y="0" width="950" height="683" fill="white">
            <use xlink:href="#path-1"></use>
        </mask>
        <rect id="path-3" x="0" y="0" width="240" height="771"></rect>
        <filter x="-50%" y="-50%" width="200%" height="200%" filterUnits="objectBoundingBox" id="filter-4">
            <feGaussianBlur stdDeviation="0.5" in="SourceAlpha" result="shadowBlurInner1"></feGaussianBlur>
            <feOffset dx="0" dy="1" in="shadowBlurInner1" result="shadowOffsetInner1"></feOffset>
            <feComposite in="shadowOffsetInner1" in2="SourceAlpha" operator="arithmetic" k2="-1" k3="1" result="shadowInnerInner1"></feComposite>
            <feColorMatrix values="0 0 0 0 0   0 0 0 0 0   0 0 0 0 0  0 0 0 0.1 0" type="matrix" in="shadowInnerInner1" result="shadowMatrixInner1"></feColorMatrix>
            <feGaussianBlur stdDeviation="0.5" in="SourceAlpha" result="shadowBlurInner2"></feGaussianBlur>
            <feOffset dx="0" dy="-1" in="shadowBlurInner2" result="shadowOffsetInner2"></feOffset>
            <feComposite in="shadowOffsetInner2" in2="SourceAlpha" operator="arithmetic" k2="-1" k3="1" result="shadowInnerInner2"></feComposite>
            <feColorMatrix values="0 0 0 0 0   0 0 0 0 0   0 0 0 0 0  0 0 0 0.1 0" type="matrix" in="shadowInnerInner2" result="shadowMatrixInner2"></feColorMatrix>
            <feMerge>
                <feMergeNode in="shadowMatrixInner1"></feMergeNode>
                <feMergeNode in="shadowMatrixInner2"></feMergeNode>
            </feMerge>
        </filter>
        <rect id="path-5" x="0" y="40" width="240" height="731"></rect>
        <filter x="-50%" y="-50%" width="200%" height="200%" filterUnits="objectBoundingBox" id="filter-6">
            <feGaussianBlur stdDeviation="0.5" in="SourceAlpha" result="shadowBlurInner1"></feGaussianBlur>
            <feOffset dx="0" dy="1" in="shadowBlurInner1" result="shadowOffsetInner1"></feOffset>
            <feComposite in="shadowOffsetInner1" in2="SourceAlpha" operator="arithmetic" k2="-1" k3="1" result="shadowInnerInner1"></feComposite>
            <feColorMatrix values="0 0 0 0 0   0 0 0 0 0   0 0 0 0 0  0 0 0 0.1 0" type="matrix" in="shadowInnerInner1" result="shadowMatrixInner1"></feColorMatrix>
            <feGaussianBlur stdDeviation="0.5" in="SourceAlpha" result="shadowBlurInner2"></feGaussianBlur>
            <feOffset dx="0" dy="-1" in="shadowBlurInner2" result="shadowOffsetInner2"></feOffset>
            <feComposite in="shadowOffsetInner2" in2="SourceAlpha" operator="arithmetic" k2="-1" k3="1" result="shadowInnerInner2"></feComposite>
            <feColorMatrix values="0 0 0 0 0   0 0 0 0 0   0 0 0 0 0  0 0 0 0.1 0" type="matrix" in="shadowInnerInner2" result="shadowMatrixInner2"></feColorMatrix>
            <feMerge>
                <feMergeNode in="shadowMatrixInner1"></feMergeNode>
                <feMergeNode in="shadowMatrixInner2"></feMergeNode>
            </feMerge>
        </filter>
        <rect id="path-7" x="0" y="0" width="240" height="60"></rect>
        <filter x="-50%" y="-50%" width="200%" height="200%" filterUnits="objectBoundingBox" id="filter-8">
            <feOffset dx="0" dy="2" in="SourceAlpha" result="shadowOffsetOuter1"></feOffset>
            <feGaussianBlur stdDeviation="1" in="shadowOffsetOuter1" result="shadowBlurOuter1"></feGaussianBlur>
            <feComposite in="shadowBlurOuter1" in2="SourceAlpha" operator="out" result="shadowBlurOuter1"></feComposite>
            <feColorMatrix values="0 0 0 0 0   0 0 0 0 0   0 0 0 0 0  0 0 0 0.2 0" type="matrix" in="shadowBlurOuter1"></feColorMatrix>
        </filter>
        <rect id="path-9" x="10" y="15" width="220" height="30" rx="4"></rect>
        <mask id="mask-10" maskContentUnits="userSpaceOnUse" maskUnits="objectBoundingBox" x="0" y="0" width="220" height="30" fill="white">
            <use xlink:href="#path-9"></use>
        </mask>
        <rect id="path-11" x="0" y="5.68434189e-14" width="60" height="771"></rect>
        <filter x="-50%" y="-50%" width="200%" height="200%" filterUnits="objectBoundingBox" id="filter-12">
            <feOffset dx="0" dy="9" in="SourceAlpha" result="shadowOffsetOuter1"></feOffset>
            <feGaussianBlur stdDeviation="9" in="shadowOffsetOuter1" result="shadowBlurOuter1"></feGaussianBlur>
            <feColorMatrix values="0 0 0 0 0   0 0 0 0 0   0 0 0 0 0  0 0 0 0.18115942 0" type="matrix" in="shadowBlurOuter1"></feColorMatrix>
        </filter>
    </defs>
    <g id="ORGANISMS" stroke="none" stroke-width="1" fill="none" fill-rule="evenodd">
        <g id="layout-filter">
            <g id="Selector" opacity="0.3" transform="translate(310.000000, 620.000000)" stroke="#3F4C57" stroke-opacity="0.304347826" fill="#FFFFFF">
                <rect id="Rectangle-264" x="1.5" y="1.5" width="13" height="13" rx="6.5"></rect>
            </g>
            <g id="Group-2" transform="translate(300.000000, 128.000000)"></g>
            <g id="Top-Nav">
                <polygon id="White-Nav-Bar" stroke="#979797" fill="#FFFFFF" points="0 0 1280 0 1280 60 0 60"></polygon>
                <g id="Group-2" transform="translate(1185.000000, 19.000000)" fill="#435363">
                    <text id="Username" font-family="SourceSansPro-Regular, Source Sans Pro" font-size="14" font-weight="normal">
                        <tspan x="-0.770019531" y="14">Username</tspan>
                    </text>
                    <polygon id="Path-Copy" points="70.577794 7 75.0679328 14 66.0876552 14"></polygon>
                </g>
                <text id="PAGE-1-PAGE-2-PAGE-3" font-family="SourceSansPro-Semibold, Source Sans Pro" font-size="18" font-weight="500" fill="#435363">
                    <tspan x="83" y="34">PAGE 1</tspan>
                    <tspan x="136.262" y="34" font-family="SourceSansPro-Light, Source Sans Pro" font-weight="300"> </tspan>
                    <tspan x="139.844" y="34" font-family="SourceSansPro-Regular, Source Sans Pro" font-weight="normal">         </tspan>
                    <tspan x="172.568" y="34" font-family="SourceSansPro-Light, Source Sans Pro" font-weight="300">PAGE 2         PAGE 3</tspan>
                </text>
            </g>
            <use id="Rectangle-4" stroke="#979797" mask="url(#mask-2)" stroke-width="2" fill="#D8D8D8" xlink:href="#path-1"></use>
            <g id="Group-3" transform="translate(10.000000, 70.000000)">
                <g id="Group-9" transform="translate(60.000000, 0.000000)">
                    <g id="Rectangle-1041-Copy-2">
                        <use fill="#435363" fill-rule="evenodd" xlink:href="#path-3"></use>
                        <use fill="black" fill-opacity="1" filter="url(#filter-4)" xlink:href="#path-3"></use>
                    </g>
                    <rect id="Rectangle-1041-Copy-2" fill-opacity="0.149999991" fill="#000000" x="0" y="0" width="240" height="771"></rect>
                    <text id="DISEASE" font-family="SourceSansPro-Regular, Source Sans Pro" font-size="14" font-weight="normal" letter-spacing="0.855555654" fill="#F1F2F5">
                        <tspan x="92.4355552" y="25">DISEASE</tspan>
                    </text>
                    <g id="Rectangle-1041-Copy-2">
                        <use fill-opacity="0.100000001" fill="#000000" fill-rule="evenodd" xlink:href="#path-5"></use>
                        <use fill="black" fill-opacity="1" filter="url(#filter-6)" xlink:href="#path-5"></use>
                    </g>
                    <g id="Group-2" transform="translate(0.000000, 40.000000)">
                        <rect id="Rectangle-580" fill-opacity="0.115913723" fill="#000000" x="0" y="0" width="240" height="30"></rect>
                        <text id="CLEAR" opacity="0.599288713" font-family="SourceSansPro-Light, Source Sans Pro" font-size="11" font-weight="300" fill="#FFFFFF">
                            <tspan x="106.444" y="19">CLEAR</tspan>
                        </text>
                    </g>
                    <g id="Rectangle-415-Copy-7-+-Imported-Layers-Copy-21-Copy-Copy-Copy-Copy-Copy-Copy-Copy-Copy-Copy-Copy-Copy-Copy-Copy-Copy-Copy-Copy-Copy" transform="translate(31.000000, 299.000000)"></g>
                    <g id="Group-10" transform="translate(0.000000, 70.000000)">
                        <text id="All" font-family="SourceSansPro-Light, Source Sans Pro" font-size="14" font-weight="300" line-spacing="22" fill="#F1F2F5">
                            <tspan x="26" y="78">All</tspan>
                        </text>
                        <g id="Rectangle-1041-Copy-4">
                            <use fill="black" fill-opacity="1" filter="url(#filter-8)" xlink:href="#path-7"></use>
                            <use fill-opacity="0" fill="#343F49" fill-rule="evenodd" xlink:href="#path-7"></use>
                        </g>
                        <use id="Rectangle-936" stroke-opacity="0.299422554" stroke="#3F4C57" mask="url(#mask-10)" stroke-width="2" fill-opacity="0.498358243" fill="#3F4C57" xlink:href="#path-9"></use>
                        <text id="Non-Small-Cell" font-family="SourceSansPro-Light, Source Sans Pro" font-size="14" font-weight="300" fill="#F1F2F5">
                            <tspan x="34" y="34">Non-Small Cell</tspan>
                        </text>
                        <path d="M25.3836532,31.2565142 C25.744418,30.6463295 25.952016,29.9284652 25.952016,29.1616555 C25.952016,26.9317078 24.0779377,25.0000002 21.9152476,25.0000002 C19.7525575,24.9993476 18,26.8070605 18,29.0370082 C18,31.2663032 19.8740783,33.1986635 22.0361355,33.1986635 C22.7557663,33.1986635 23.4285611,32.9970089 24.0076835,32.6478658 L26.4121494,35.1284134 C26.6475959,35.3705294 27.0292471,35.3705294 27.2640607,35.1284134 L27.8609049,34.5130079 C28.0957185,34.2708918 28.0102742,33.9648205 27.7754606,33.7227045 L25.3836532,31.2565142 Z M19.2050811,29.0375993 C19.2050811,27.4933123 20.4183901,26.2420873 21.9152476,26.2420873 C23.4127381,26.2420873 24.746935,27.6173252 24.746935,29.1622649 C24.746935,30.7058992 23.532993,31.9577769 22.0361355,31.9577769 C20.538645,31.9571242 19.2050811,30.5812336 19.2050811,29.0375993 L19.2050811,29.0375993 Z" id="Fill-2-Copy-2" fill="#7A8389"></path>
                    </g>
                </g>
                <g id="Rectangle-1438">
                    <use fill="black" fill-opacity="1" filter="url(#filter-12)" xlink:href="#path-11"></use>
                    <use fill="#435363" fill-rule="evenodd" xlink:href="#path-11"></use>
                </g>
                <rect id="Rectangle-2700" fill-opacity="0.449275362" fill="#57C9E8" x="0" y="40" width="60" height="40"></rect>
                <g id="Group-2" transform="translate(12.000000, 13.000000)">
                    <path d="M13.5896765,36.6007352 L13.5896765,43.5300767 C13.5896765,44.4110002 14.3098728,45.1308119 15.1911808,45.1308119 L18.3518926,45.1308119 L18.3518926,47.1933494 L11.3856376,47.1933494 C10.5039451,47.1933494 9.77336697,47.9131612 9.77336697,48.7940846 L9.77336697,49.8791854 L6.60188874,49.8791854 C5.72019626,49.8791854 5,50.5989972 5,51.4799206 L5,58.4092622 C5,59.2901856 5.72019626,59.9996155 6.60188874,59.9996155 L13.5358445,59.9996155 C14.417537,59.9996155 15.1377332,59.2901856 15.1377332,58.4092622 L15.1377332,51.4803052 C15.1377332,50.5993817 14.417537,49.87957 13.5358445,49.87957 L11.1434748,49.87957 L11.1434748,49.5520449 C11.1434748,48.9933449 11.5841288,48.5638418 12.1432134,48.5638418 L25.1734884,48.5638418 C25.732573,48.5638418 26.1736115,48.9933449 26.1736115,49.5520449 L26.1736115,49.87957 L23.7812418,49.87957 C22.8999339,49.87957 22.1797376,50.5993817 22.1797376,51.4803052 L22.1797376,58.4096467 C22.1797376,59.2905702 22.8999339,60 23.7812418,60 L30.7151976,60 C31.5965055,60 32.3063199,59.2905702 32.3063199,58.4096467 L32.3063199,51.4803052 C32.3063199,50.5993817 31.5965055,49.87957 30.7151976,49.87957 L27.5329529,49.87957 L27.5329529,48.7944691 C27.5329529,47.9135457 26.8127567,47.1937339 25.9310642,47.1937339 L19.7116185,47.1937339 L19.7116185,45.1311965 L22.1251365,45.1311965 C23.006829,45.1311965 23.7270252,44.4113847 23.7270252,43.5304613 L23.7270252,36.6007352 C23.7270252,35.7301936 23.006829,35 22.1251365,35 L15.1911808,35 C14.3098728,35 13.5896765,35.7301936 13.5896765,36.6007352 Z M15.7790672,36.3697233 L21.5365494,36.3697233 C21.9921546,36.3697233 22.3577242,36.7356123 22.3577242,37.1905788 L22.3577242,42.9442298 C22.3577242,43.408136 21.9918353,43.7740249 21.5365494,43.7740249 L15.7790672,43.7740249 C15.3148417,43.7740249 14.9486335,43.408136 14.9486335,42.9442298 L14.9486335,37.1905788 C14.9486335,36.735293 15.3148417,36.3697233 15.7790672,36.3697233 L15.7790672,36.3697233 L15.7790672,36.3697233 Z M7.18949167,51.2492933 L12.947222,51.2492933 C13.4025275,51.2492933 13.7684322,51.6059386 13.7684322,52.0698649 L13.7684322,57.8237638 C13.7684322,58.28769 13.4025275,58.6446546 12.947222,58.6446546 L7.18949167,58.6446546 C6.72524612,58.6446546 6.35934145,58.28769 6.35934145,57.8237638 L6.35934145,52.0701842 C6.35934145,51.6059386 6.72524612,51.2492933 7.18949167,51.2492933 L7.18949167,51.2492933 L7.18949167,51.2492933 Z M24.3699464,51.2492933 L30.122915,51.2492933 C30.5864319,51.2492933 30.9434005,51.6056239 30.9434005,52.0691408 L30.9434005,57.8179623 C30.9434005,58.2814792 30.5864319,58.6381288 30.122915,58.6381288 L24.3699464,58.6381288 C23.9064296,58.6381288 23.549461,58.2814792 23.549461,57.8179623 L23.549461,52.0694598 C23.549461,51.6056239 23.9064296,51.2492933 24.3699464,51.2492933 L24.3699464,51.2492933 L24.3699464,51.2492933 Z" id="Shape-Copy-6" fill="#57C9E8"></path>
                    <g id="Page-1-+-Page-1" transform="translate(8.000000, 254.000000)" stroke="#ACB3BB">
                        <g id="Page-1">
                            <path d="M0.364219114,0.365530303 L0.364219114,5.9504662 C0.364219114,11.343978 8.57153654,11.6776781 12.07314,14.7893922" id="Stroke-1" stroke-linecap="round"></path>
                            <path d="M13.6263112,0.365530303 L13.6263112,5.9504662 C13.6263112,12.8065268 0.364364802,11.4865967 0.364364802,18.0898893 L0.364364802,23.6740967" id="Stroke-3" stroke-linecap="round"></path>
                            <path d="M0.406104312,1.91011072 L3.33806818,1.91011072" id="Stroke-5"></path>
                            <path d="M4.77520396,1.91011072 L13.4640152,1.91011072" id="Stroke-7"></path>
                            <path d="M0.406104312,5.216419 L9.27192599,5.216419" id="Stroke-9"></path>
                            <path d="M10.6004516,5.216419 L13.4639423,5.216419" id="Stroke-11"></path>
                            <path d="M1.11458333,8.52280012 L6.29013695,8.52280012" id="Stroke-13"></path>
                            <path d="M7.79596445,8.52280012 L12.7355041,8.52280012" id="Stroke-15"></path>
                            <path d="M4.8143211,1.91011072 C4.8143211,2.35882867 4.45083042,2.72159091 4.00284091,2.72159091 C3.55412296,2.72159091 3.19063228,2.35882867 3.19063228,1.91011072 C3.19063228,1.46139277 3.55412296,1.09863054 4.00284091,1.09863054 C4.45083042,1.09863054 4.8143211,1.46139277 4.8143211,1.91011072 L4.8143211,1.91011072 Z" id="Stroke-17"></path>
                            <path d="M10.7776078,5.216419 C10.7776078,5.66513695 10.4141171,6.02789918 9.96612762,6.02789918 C9.51740967,6.02789918 9.153919,5.66513695 9.153919,5.216419 C9.153919,4.76770105 9.51740967,4.40493881 9.96612762,4.40493881 C10.4141171,4.40493881 10.7776078,4.76770105 10.7776078,5.216419 L10.7776078,5.216419 Z" id="Stroke-19"></path>
                            <path d="M7.8254662,8.52280012 C7.8254662,8.97151807 7.46197552,9.3342803 7.01398601,9.3342803 C6.56526807,9.3342803 6.20177739,8.97151807 6.20177739,8.52280012 C6.20177739,8.07408217 6.56526807,7.71131993 7.01398601,7.71131993 C7.46197552,7.71131993 7.8254662,8.07408217 7.8254662,8.52280012 L7.8254662,8.52280012 Z" id="Stroke-21"></path>
                            <path d="M1.26252914,15.5228001 L6.33318765,15.5228001" id="Stroke-23"></path>
                            <path d="M8.7,15.5228001 L9.4,15.5228001" id="Stroke-25" stroke-linecap="square"></path>
                            <path d="M0.406104312,18.8291084 L9.27192599,18.8291084" id="Stroke-27"></path>
                            <path d="M0.545308858,22.1354895 L3.39350233,22.1354895" id="Stroke-31"></path>
                            <path d="M4.93837413,22.1354895 L9.51454028,22.1354895" id="Stroke-33"></path>
                            <path d="M7.80936772,15.5228001 C7.80936772,15.9715181 7.44587704,16.3342803 6.99788753,16.3342803 C6.54916958,16.3342803 6.1856789,15.9715181 6.1856789,15.5228001 C6.1856789,15.0740822 6.54916958,14.7113199 6.99788753,14.7113199 C7.44587704,14.7113199 7.80936772,15.0740822 7.80936772,15.5228001 L7.80936772,15.5228001 Z" id="Stroke-35"></path>
                            <path d="M4.80026224,22.1354895 C4.80026224,22.5842075 4.43677156,22.9469697 3.98878205,22.9469697 C3.5400641,22.9469697 3.17657343,22.5842075 3.17657343,22.1354895 C3.17657343,21.6867716 3.5400641,21.3240093 3.98878205,21.3240093 C4.43677156,21.3240093 4.80026224,21.6867716 4.80026224,22.1354895 L4.80026224,22.1354895 Z" id="Stroke-39"></path>
                        </g>
                        <g id="Page-1" transform="translate(8.653846, 13.461538)" stroke-linejoin="round">
                            <path d="M10.4430543,6.43167421 L10.1545928,6.26538462 C10.184457,6.05429864 10.2054977,5.84049774 10.2054977,5.62126697 C10.2054977,5.26153846 10.184457,5.18823529 10.1545928,4.97714932 L10.4430543,4.81085973 C10.9297059,4.52986425 11.0966742,3.90746606 10.8156787,3.42013575 L10.1369457,2.24457014 C9.85595023,1.75791855 9.2328733,1.59095023 8.74622172,1.8719457 L8.45911765,2.03755656 C8.12178733,1.77217195 7.7471267,1.55361991 7.34260181,1.39140271 L7.34260181,1.06153846 C7.34260181,0.499547511 6.88649321,0.043438914 6.32450226,0.043438914 L4.9670362,0.043438914 C4.40504525,0.043438914 3.94893665,0.499547511 3.94893665,1.06153846 L3.94893665,1.39140271 C3.54441176,1.55361991 3.16975113,1.77217195 2.83242081,2.03755656 L2.54531674,1.8719457 C2.05866516,1.59095023 1.43558824,1.75791855 1.15459276,2.24457014 L0.475859729,3.42013575 C0.194864253,3.90746606 0.361832579,4.52986425 0.848484163,4.81085973 L1.1369457,4.97714932 C1.10708145,5.18823529 1.08604072,5.4020362 1.08604072,5.62126697 C1.08604072,5.96674208 1.10708145,6.05429864 1.1369457,6.26538462 L0.848484163,6.43167421 C0.361832579,6.71266968 0.194864253,7.33574661 0.475859729,7.82239819 L1.15459276,8.9979638 C1.43558824,9.48529412 2.05866516,9.65158371 2.54531674,9.37058824 L2.83242081,9.20497738 C3.16975113,9.47036199 3.54441176,9.68891403 3.94893665,9.85113122 L3.94893665,10.1809955 C3.94893665,10.7429864 4.40504525,11.199095 4.9670362,11.199095 L6.32450226,11.199095 C6.88649321,11.199095 7.34260181,10.7429864 7.34260181,10.1809955 L7.34260181,9.85113122 C7.7471267,9.68891403 8.12178733,9.47036199 8.45911765,9.20497738 L8.74622172,9.37058824 C9.2328733,9.65158371 9.85595023,9.48529412 10.1369457,8.9979638 L10.8156787,7.82239819 C11.0966742,7.33574661 10.9297059,6.71266968 10.4430543,6.43167421 L10.4430543,6.43167421 Z" id="Stroke-1"></path>
                            <path d="M7.10226244,5.62126697 C7.10226244,6.42556561 6.45,7.07782805 5.64570136,7.07782805 C4.84140271,7.07782805 4.18914027,6.42556561 4.18914027,5.62126697 C4.18914027,4.81696833 4.84140271,4.16470588 5.64570136,4.16470588 C6.45,4.16470588 7.10226244,4.81696833 7.10226244,5.62126697 L7.10226244,5.62126697 Z" id="Stroke-3"></path>
                        </g>
                    </g>
                    <g id="Page-1" opacity="0.60208722" transform="translate(10.000000, 199.000000)" stroke="#F1F2F5">
                        <path d="M0.378787879,0.380151515 L0.378787879,6.18848485 C0.378787879,13.3187879 14.1712121,11.9460606 14.1712121,18.8134848 L14.1712121,24.6210606" id="Stroke-1" stroke-linecap="round"></path>
                        <path d="M14.1713636,0.380151515 L14.1713636,6.18848485 C14.1713636,13.3187879 0.378939394,11.9460606 0.378939394,18.8134848 L0.378939394,24.6210606" id="Stroke-3" stroke-linecap="round"></path>
                        <path d="M0.422348485,1.98651515 L3.47159091,1.98651515" id="Stroke-5"></path>
                        <path d="M4.96621212,1.98651515 L14.0025758,1.98651515" id="Stroke-7"></path>
                        <path d="M0.422348485,5.42507576 L9.64280303,5.42507576" id="Stroke-9"></path>
                        <path d="M11.0244697,5.42507576 L14.0025,5.42507576" id="Stroke-11"></path>
                        <path d="M1.15916667,8.86371212 L6.54174242,8.86371212" id="Stroke-13"></path>
                        <path d="M8.10780303,8.86371212 L13.2449242,8.86371212" id="Stroke-15"></path>
                        <path d="M5.00689394,1.98651515 C5.00689394,2.45318182 4.62886364,2.83045455 4.16295455,2.83045455 C3.69628788,2.83045455 3.31825758,2.45318182 3.31825758,1.98651515 C3.31825758,1.51984848 3.69628788,1.14257576 4.16295455,1.14257576 C4.62886364,1.14257576 5.00689394,1.51984848 5.00689394,1.98651515 L5.00689394,1.98651515 Z" id="Stroke-17"></path>
                        <path d="M11.2087121,5.42507576 C11.2087121,5.89174242 10.8306818,6.26901515 10.3647727,6.26901515 C9.89810606,6.26901515 9.52007576,5.89174242 9.52007576,5.42507576 C9.52007576,4.95840909 9.89810606,4.58113636 10.3647727,4.58113636 C10.8306818,4.58113636 11.2087121,4.95840909 11.2087121,5.42507576 L11.2087121,5.42507576 Z" id="Stroke-19"></path>
                        <path d="M8.13848485,8.86371212 C8.13848485,9.33037879 7.76045455,9.70765152 7.29454545,9.70765152 C6.82787879,9.70765152 6.44984848,9.33037879 6.44984848,8.86371212 C6.44984848,8.39704545 6.82787879,8.01977273 7.29454545,8.01977273 C7.76045455,8.01977273 8.13848485,8.39704545 8.13848485,8.86371212 L8.13848485,8.86371212 Z" id="Stroke-21"></path>
                        <path d="M1.3130303,16.1437121 L6.58651515,16.1437121" id="Stroke-23"></path>
                        <path d="M8.03931818,16.1437121 L13.2446212,16.1437121" id="Stroke-25"></path>
                        <path d="M0.422348485,19.5822727 L9.64280303,19.5822727" id="Stroke-27"></path>
                        <path d="M11.0244697,19.5822727 L14.0025,19.5822727" id="Stroke-29"></path>
                        <path d="M0.567121212,23.0209091 L3.52924242,23.0209091" id="Stroke-31"></path>
                        <path d="M5.13590909,23.0209091 L14.050303,23.0209091" id="Stroke-33"></path>
                        <path d="M8.12174242,16.1437121 C8.12174242,16.6103788 7.74371212,16.9876515 7.27780303,16.9876515 C6.81113636,16.9876515 6.43310606,16.6103788 6.43310606,16.1437121 C6.43310606,15.6770455 6.81113636,15.2997727 7.27780303,15.2997727 C7.74371212,15.2997727 8.12174242,15.6770455 8.12174242,16.1437121 L8.12174242,16.1437121 Z" id="Stroke-35"></path>
                        <path d="M11.2087121,19.5822727 C11.2087121,20.0489394 10.8306818,20.4262121 10.3647727,20.4262121 C9.89810606,20.4262121 9.52007576,20.0489394 9.52007576,19.5822727 C9.52007576,19.1156061 9.89810606,18.7383333 10.3647727,18.7383333 C10.8306818,18.7383333 11.2087121,19.1156061 11.2087121,19.5822727 L11.2087121,19.5822727 Z" id="Stroke-37"></path>
                        <path d="M4.99227273,23.0209091 C4.99227273,23.4875758 4.61424242,23.8648485 4.14833333,23.8648485 C3.68166667,23.8648485 3.30363636,23.4875758 3.30363636,23.0209091 C3.30363636,22.5542424 3.68166667,22.1769697 4.14833333,22.1769697 C4.61424242,22.1769697 4.99227273,22.5542424 4.99227273,23.0209091 L4.99227273,23.0209091 Z" id="Stroke-39"></path>
                    </g>
                    <g id="Imported-Layers-Copy-21" opacity="0.600000024" transform="translate(13.000000, 145.000000)" stroke="#F1F2F5" stroke-width="1.25">
                        <path d="M4.93100819,25 L4.64881122,25 C2.92078092,25 1.52002335,23.6881794 1.52002335,22.0698653 L1.52002335,2.65151515 L8.05979607,2.65151515 L8.05979607,22.0698653 C8.05979607,23.6881794 6.6590385,25 4.93100819,25 L4.93100819,25 Z M1.59578092,5.58977273 L3.07002335,5.58977273 L1.59578092,5.58977273 Z M1.59578092,7.76477273 L3.92040213,7.76477273 L1.59578092,7.76477273 Z M1.59578092,9.99659091 L3.07002335,9.99659091 L1.59578092,9.99659091 Z M1.59578092,12.1719697 L3.92040213,12.1719697 L1.59578092,12.1719697 Z M1.59578092,14.4034091 L3.07002335,14.4034091 L1.59578092,14.4034091 Z M1.59578092,16.5787879 L3.92040213,16.5787879 L1.59578092,16.5787879 Z" id="Stroke-1" stroke-linecap="round" stroke-linejoin="round"></path>
                        <path d="M9.0079411,2.66666665 L0.461801645,2.66666665 C0.206899771,2.66666665 2.28881836e-05,2.49684907 2.28881836e-05,2.28760956 L2.28881836e-05,0.379057093 C2.28881836e-05,0.169438521 0.206899771,0 0.461801645,0 L9.0079411,0 C9.26284297,0 9.46971986,0.169438521 9.46971986,0.379057093 L9.46971986,2.28760956 C9.46971986,2.49684907 9.26284297,2.66666665 9.0079411,2.66666665 L9.0079411,2.66666665 Z" id="Stroke-2"></path>
                    </g>
                    <g id="Imported-Layers-Copy-22" opacity="0.6" transform="translate(5.000000, 89.000000)" stroke="#F1F2F5" stroke-width="1.25">
                        <path d="M10.8719664,7.76310204 C10.8719664,8.80599678 10.0264401,9.65125994 8.9838085,9.65125994 C7.94091376,9.65125994 7.0956506,8.80599678 7.0956506,7.76310204 C7.0956506,6.72020731 7.94091376,5.87494415 8.9838085,5.87494415 C10.0264401,5.87494415 10.8719664,6.72020731 10.8719664,7.76310204 L10.8719664,7.76310204 Z" id="Stroke-1"></path>
                        <path d="M5.97486113,13.3244178 C5.97486113,11.6628389 7.32196639,10.3154705 8.9838085,10.3154705 C10.6453874,10.3154705 11.9924927,11.6628389 11.9924927,13.3244178 L5.97486113,13.3244178 L5.97486113,13.3244178 Z" id="Stroke-2" stroke-linecap="round" stroke-linejoin="round"></path>
                        <path d="M17.7923811,11.9927831 C17.7923811,13.0356778 16.9471179,13.880941 15.9042232,13.880941 C14.8613284,13.880941 14.0160653,13.0356778 14.0160653,11.9927831 C14.0160653,10.9501515 14.8613284,10.1046252 15.9042232,10.1046252 C16.9471179,10.1046252 17.7923811,10.9501515 17.7923811,11.9927831 L17.7923811,11.9927831 Z" id="Stroke-3"></path>
                        <path d="M12.8952758,17.5540989 C12.8952758,15.8925199 14.2423811,14.5454146 15.9042232,14.5454146 C17.5660653,14.5454146 18.9131705,15.8925199 18.9131705,17.5540989 L12.8952758,17.5540989 L12.8952758,17.5540989 Z" id="Stroke-4" stroke-linecap="round" stroke-linejoin="round"></path>
                        <path d="M2.98763158,19.7997368 C-0.689473684,15.5136842 -0.677894737,9.15157895 3.02263158,4.87868421 M20.0760526,21.8726316 C15.7034211,25.7952632 9.03736842,25.7623684 4.70315789,21.7736842 M5.13578947,2.79184211 C9.39052632,-0.749210526 15.6110526,-0.725 19.8389474,2.86447368 M21.8484211,4.85947368 C25.5836842,9.15263158 25.5831579,15.5681579 21.8473684,19.8610526" id="Stroke-7" stroke-linecap="round" stroke-linejoin="round"></path>
                    </g>
                    <text id="FILTERS" font-family="SourceSansPro-Regular, Source Sans Pro" font-size="11" font-weight="normal" fill="#57C9E8">
                        <tspan x="0" y="11">FILTERS</tspan>
                    </text>
                </g>
                <g id="Group-Copy-30" transform="translate(70.000000, 152.000000)">
                    <text id="Solid-Tumor-(67,821)" font-family="SourceSansPro-Light, Source Sans Pro" font-size="14" font-weight="300" line-spacing="22" fill="#F1F2F5">
                        <tspan x="30.5" y="14.5">Solid Tumor (67,821)</tspan>
                        <tspan x="30.5" y="36.5">      Respiratory system neoplasm...</tspan>
                        <tspan x="30.5" y="58.5">            Lung neoplasm (13.965)</tspan>
                        <tspan x="30.5" y="80.5">                  Lung Carcinoma (13,852)</tspan>
                        <tspan x="30.5" y="102.5">                        Lung non-small cell l...</tspan>
                    </text>
                    <g id="SomeChecked" transform="translate(49.000000, 51.000000)">
                        <rect id="Rectangle-264" stroke-opacity="0.3" stroke="#3F4C57" stroke-width="1" fill="#F1F2F5" fill-rule="evenodd" x="0" y="-5.44275736e-12" width="10" height="10" rx="2"></rect>
                        <path d="M2.5,5 L7.7,5" id="Line" stroke="#57C9E8" stroke-width="2" stroke-linecap="square"></path>
                    </g>
                    <g id="SomeChecked" transform="translate(66.000000, 73.000000)">
                        <rect id="Rectangle-264" stroke-opacity="0.3" stroke="#3F4C57" stroke-width="1" fill="#F1F2F5" fill-rule="evenodd" x="0" y="-5.44275736e-12" width="10" height="10" rx="2"></rect>
                        <path d="M2.5,5 L7.7,5" id="Line" stroke="#57C9E8" stroke-width="2" stroke-linecap="square"></path>
                    </g>
                    <g id="SomeChecked" transform="translate(32.000000, 29.000000)">
                        <rect id="Rectangle-264" stroke-opacity="0.3" stroke="#3F4C57" stroke-width="1" fill="#F1F2F5" fill-rule="evenodd" x="0" y="-5.44275736e-12" width="10" height="10" rx="2"></rect>
                        <path d="M2.5,5 L7.7,5" id="Line" stroke="#57C9E8" stroke-width="2" stroke-linecap="square"></path>
                    </g>
                    <polygon id="Path-Copy-9" fill="#7A8389" points="1.5 7 1.5 17 8.5 12"></polygon>
                    <polygon id="Path-Copy-10" fill="#7A8389" points="17.5 29.5 17.5 39.5 24.5 34.5"></polygon>
                    <polygon id="Path-Copy-11" fill="#7A8389" points="34.5 51.5 34.5 61.5 41.5 56.5"></polygon>
                    <polygon id="Path-Copy-12" fill="#7A8389" points="51.5 73.5 51.5 83.5 58.5 78.5"></polygon>
                    <g id="Checked" transform="translate(83.000000, 95.000000)">
                        <rect id="Rectangle-264" stroke="#A9B2BD" stroke-width="0.5" fill="#57C9E8" x="0" y="0" width="10" height="9.7730155" rx="2"></rect>
                        <polygon id="check-icon" fill="#FFFFFF" points="0.666666667 5.99522511 3.54580975 8.99176671 9.16666667 3.14137596 7.70991646 1.62883592 3.53893829 5.959552 2.12341687 4.48268506"></polygon>
                    </g>
                    <g id="SomeChecked" transform="translate(16.000000, 7.000000)">
                        <rect id="Rectangle-264" stroke-opacity="0.3" stroke="#3F4C57" stroke-width="1" fill="#F1F2F5" fill-rule="evenodd" x="0" y="-5.44275736e-12" width="10" height="10" rx="2"></rect>
                        <path d="M2.5,5 L7.7,5" id="Line" stroke="#57C9E8" stroke-width="2" stroke-linecap="square"></path>
                    </g>
                </g>
                <g id="SomeChecked" transform="translate(70.000000, 140.000000)">
                    <rect id="Rectangle-264" stroke-opacity="0.3" stroke="#3F4C57" stroke-width="1" fill="#F1F2F5" fill-rule="evenodd" x="0" y="-5.44275736e-12" width="10" height="10" rx="2"></rect>
                    <path d="M2.5,5 L7.7,5" id="Line" stroke="#57C9E8" stroke-width="2" stroke-linecap="square"></path>
                </g>
                <text id="All-(70,764-Samples)" font-family="SourceSansPro-Light, Source Sans Pro" font-size="14" font-weight="300" fill="#F1F2F5">
                    <tspan x="86" y="150">All (70,764 Samples)</tspan>
                </text>
            </g>
            <path d="M294.989281,96.4370249 L288.009148,89.7872332 L294.989281,83.1374415 C295.297857,82.843044 295.2472,82.4065311 294.877617,82.1610196 C294.508034,81.9155082 293.956791,81.9553091 293.648215,82.249274 L286.202631,89.3431495 C286.066999,89.4716374 286,89.6295435 286,89.7872332 C286,89.9451393 286.066999,90.102829 286.202631,90.2313169 L293.648215,97.3251924 C293.956791,97.6191573 294.507761,97.6589582 294.877617,97.4134468 C295.248289,97.1675027 295.298402,96.731855 294.989281,96.4370249" id="Imported-Layers-Copy-27" fill="#57C9E8"></path>
            <g id="Data-View-Header" transform="translate(320.000000, 109.000000)" stroke="#7A8389" fill="#FFFFFF">
                <rect id="button-bg" x="0" y="0" width="950" height="41"></rect>
            </g>
            <rect id="button-bg" stroke="#7A8389" fill="#FFFFFF" x="320" y="70" width="950" height="40"></rect>
            <text id="Title" font-family="SourceSansPro-Light, Source Sans Pro" font-size="21" font-weight="300" line-spacing="25" fill="#3F4C57">
                <tspan x="336" y="97">Title</tspan>
            </text>
            <text id="Tab" font-family="SourceSansPro-Light, Source Sans Pro" font-size="21" font-weight="300" line-spacing="25" fill="#3F4C57">
                <tspan x="336" y="137">Tab</tspan>
            </text>
            <path d="M325.5,157.5 L1265.5,826.5" id="Line" stroke="#979797" stroke-linecap="square"></path>
            <path d="M320.5,830.5 L1264.5,156.5" id="Line" stroke="#979797" stroke-linecap="square"></path>
            <polygon id="Polygon" stroke="#979797" fill="#D8D8D8" points="42.5 11 57 19.5 57 36.5 42.5 45 28 36.5 28 19.5"></polygon>
        </g>
    </g>
</svg>