<?xml version="1.0" encoding="UTF-8" standalone="no"?>
<svg width="1280px" height="840px" viewBox="0 0 1280 840" version="1.1" xmlns="http://www.w3.org/2000/svg" xmlns:xlink="http://www.w3.org/1999/xlink" style="background: #F1F2F5;">
    <!-- Generator: Sketch 41.2 (35397) - http://www.bohemiancoding.com/sketch -->
    <title>main nav</title>
    <desc>Created with Sketch.</desc>
    <defs>
        <rect id="path-1" x="320" y="150" width="950" height="675"></rect>
        <mask id="mask-2" maskContentUnits="userSpaceOnUse" maskUnits="objectBoundingBox" x="0" y="0" width="950" height="675" fill="white">
            <use xlink:href="#path-1"></use>
        </mask>
        <rect id="path-3" x="10" y="70" width="300" height="770"></rect>
        <mask id="mask-4" maskContentUnits="userSpaceOnUse" maskUnits="objectBoundingBox" x="0" y="0" width="300" height="770" fill="white">
            <use xlink:href="#path-3"></use>
        </mask>
        <polygon id="path-5" points="14.0576901 0.809147566 0.000277375941 0.809147566 0.000277375941 17.0444718 14.0576901 17.0444718 14.0576901 0.809147566"></polygon>
        <polygon id="path-7" points="0.0449349025 16.6263199 14.0579675 16.6263199 14.0579675 0.452513005 0.0449349025 0.452513005 0.0449349025 16.6263199"></polygon>
    </defs>
    <g id="ORGANISMS" stroke="none" stroke-width="1" fill="none" fill-rule="evenodd">
        <g id="main-nav">
            <g id="Selector" opacity="0.3" transform="translate(310.000000, 620.000000)" stroke="#3F4C57" stroke-opacity="0.304347826" fill="#FFFFFF">
                <rect id="Rectangle-264" x="1.5" y="1.5" width="13" height="13" rx="6.5"></rect>
            </g>
            <g id="Group-2" transform="translate(300.000000, 128.000000)"></g>
            <use id="Rectangle-4" stroke="#979797" mask="url(#mask-2)" stroke-width="2" fill="#D8D8D8" xlink:href="#path-1"></use>
            <g id="Data-View-Header" transform="translate(320.000000, 109.000000)" stroke="#7A8389" fill="#FFFFFF">
                <rect id="button-bg" x="0" y="0" width="950" height="41"></rect>
            </g>
            <rect id="button-bg" stroke="#7A8389" fill="#FFFFFF" x="320" y="70" width="950" height="40"></rect>
            <text id="Title" font-family="SourceSansPro-Light, Source Sans Pro" font-size="21" font-weight="300" line-spacing="25" fill="#3F4C57">
                <tspan x="336" y="97">Title</tspan>
            </text>
            <text id="Tab" font-family="SourceSansPro-Light, Source Sans Pro" font-size="21" font-weight="300" line-spacing="25" fill="#3F4C57">
                <tspan x="336" y="137">Tab</tspan>
            </text>
            <use id="Rectangle-5" stroke="#7A8389" mask="url(#mask-4)" stroke-width="2" fill="#FFFFFF" xlink:href="#path-3"></use>
            <path d="M10.5,69.5 L304.5,846.5" id="Line" stroke="#979797" stroke-linecap="square"></path>
            <path d="M306.5,69.5 L9.5,845.5" id="Line" stroke="#979797" stroke-linecap="square"></path>
            <path d="M320.5,151.5 L1268.5,817.5" id="Line" stroke="#979797" stroke-linecap="square"></path>
            <path d="M323.5,821.5 L1271.5,151.5" id="Line" stroke="#979797" stroke-linecap="square"></path>
            <g id="Data-Request-Header">
                <g id="Master-Nav-Header">
                    <g>
                        <polygon id="White-Nav-Bar" fill="#556472" points="0 0 1280 0 1280 60 0 60"></polygon>
                        <g id="Joe-Smith-+-Path-Copy" transform="translate(1184.750000, 20.000000)" fill="#F1F2F5">
                            <text id="Joe-Smith" font-family="SourceSansPro-Regular, Source Sans Pro" font-size="14" font-weight="normal">
                                <tspan x="0" y="14">Joe Smith</tspan>
                            </text>
                            <polygon id="Path-Copy" points="69.125 7 74.75 14 63.5 14"></polygon>
                        </g>
                        <g id="Brand" transform="translate(25.000000, 13.000000)">
                            <polygon id="Fill-25" fill="#435363" points="28.1339644 8.92861087 28.1339644 8.91752665 14.0765517 0.809424671 14.0765517 17.045026"></polygon>
                            <g id="Group-29">
                                <mask id="mask-6" fill="white">
                                    <use xlink:href="#path-5"></use>
                                </mask>
                                <g id="Clip-28"></g>
                                <polygon id="Fill-27" fill="#435363" mask="url(#mask-6)" points="14.0576901 0.808870461 0.000277375941 8.91697244 0.000277375941 8.9252856 14.0576901 17.0444718"></polygon>
                            </g>
                            <polygon id="Fill-30" fill="#B4BAC1" points="28.1081684 25.1589472 28.1331322 25.1450919 28.1331322 8.9510564 14.0868146 17.0619294"></polygon>
                            <polygon id="Fill-32" fill="#8E98A2" points="0 8.94800824 0 25.1448148 14.0490914 17.0616523"></polygon>
                            <g id="Group-36" transform="translate(0.000000, 16.626320)">
                                <mask id="mask-8" fill="white">
                                    <use xlink:href="#path-7"></use>
                                </mask>
                                <g id="Clip-35"></g>
                                <polygon id="Fill-34" fill="#ECEEEF" mask="url(#mask-8)" points="0.0449349025 8.54398867 14.0579675 16.6271512 14.0579675 0.452513005"></polygon>
                            </g>
                            <polygon id="Fill-37" fill="#D9DDE0" points="14.0762743 17.0774473 14.0762743 33.2520855 28.0893068 25.168923"></polygon>
                            <polygon id="Fill-39" fill="#00A1DF" points="14.0762743 24.9555519 14.0762743 24.9555519 14.0984644 24.9694072 20.92746 21.0289693 14.0762743 17.0802184"></polygon>
                            <polygon id="Fill-41" fill="#B4BAC1" points="20.9723949 21.0744146 20.9723949 21.0744146 20.9502049 21.0605594 14.1212092 25.0009972 20.9723949 28.9497481"></polygon>
                            <polygon id="Fill-43" fill="#ECEEEF" points="20.9382777 13.1364553 20.9382777 13.1364553 20.9160876 13.1226 14.0870919 17.0630379 20.9382777 21.0117888"></polygon>
                        </g>
                    </g>
                    <text id="PROJECTS-EXPLORE-DAT" font-family="SourceSansPro-Light, Source Sans Pro" font-size="18" font-weight="300" fill="#F1F2F5">
                        <tspan x="83" y="37">PROJECTS </tspan>
                        <tspan x="162.182" y="37" font-family="SourceSansPro-Regular, Source Sans Pro" font-weight="normal">       </tspan>
                        <tspan x="187.634" y="37">EXPLORE        </tspan>
                        <tspan x="282.494" y="37" font-family="SourceSansPro-Semibold, Source Sans Pro" font-weight="500">DATA REQUEST</tspan>
                        <tspan x="398.468" y="37">        SUPPORT</tspan>
                    </text>
                </g>
            </g>
            <g id="$SIZE1464224871627" transform="translate(410.000000, 55.000000)">
                <polygon id="line" fill="#77BC1F" points="3 5 4 5 4 15.5 3 15.5"></polygon>
                <polygon id="start-arrow" fill="#77BC1F" points="0 5 7 5 7 6 0 6"></polygon>
                <polygon id="end-arrow" fill="#77BC1F" points="0 14.5 7 14.5 7 15.5 0 15.5"></polygon>
                <polygon id="81" fill="#77BC1F" points="20 0 57 0 57 22 20 22"></polygon>
                <text id="10px" font-family="Helvetica" font-size="12" font-weight="normal" line-spacing="12" fill="#FFFFFF">
                    <tspan x="25" y="17">10px</tspan>
                </text>
            </g>
            <g id="$SIZE1464224871627-Copy" transform="translate(309.000000, 179.000000)">
                <polygon id="line" fill="#77BC1F" points="0 6 1 6 1 14 0 14"></polygon>
                <polygon id="line-copy" fill="#77BC1F" points="11 6 12 6 12 14 11 14"></polygon>
                <polygon id="end-arrow" fill="#77BC1F" points="1 10 11 10 11 11 1 11"></polygon>
                <polygon id="81" fill="#77BC1F" points="16 0 53 0 53 22 16 22"></polygon>
                <text id="10px" font-family="Helvetica" font-size="12" font-weight="normal" line-spacing="12" fill="#FFFFFF">
                    <tspan x="21" y="17">10px</tspan>
                </text>
            </g>
            <g id="$SIZE1464224871627-Copy-2" transform="translate(-1.000000, 179.000000)">
                <polygon id="line-copy" fill="#77BC1F" points="11 6 12 6 12 14 11 14"></polygon>
                <polygon id="end-arrow" fill="#77BC1F" points="1 10 11 10 11 11 1 11"></polygon>
                <polygon id="81" fill="#77BC1F" points="16 0 53 0 53 22 16 22"></polygon>
                <text id="10px" font-family="Helvetica" font-size="12" font-weight="normal" line-spacing="12" fill="#FFFFFF">
                    <tspan x="21" y="17">10px</tspan>
                </text>
            </g>
        </g>
    </g>
</svg>