<?xml version="1.0" encoding="UTF-8" standalone="no"?>
<svg width="1280px" height="840px" viewBox="0 0 1280 840" version="1.1" xmlns="http://www.w3.org/2000/svg" xmlns:xlink="http://www.w3.org/1999/xlink" style="background: #F1F2F5;">
    <!-- Generator: Sketch 41.2 (35397) - http://www.bohemiancoding.com/sketch -->
    <title>Secondary Filter</title>
    <desc>Created with Sketch.</desc>
    <defs>
        <rect id="path-1" x="0" y="0" width="281" height="30" rx="4"></rect>
        <mask id="mask-2" maskContentUnits="userSpaceOnUse" maskUnits="objectBoundingBox" x="0" y="0" width="281" height="30" fill="white">
            <use xlink:href="#path-1"></use>
        </mask>
        <polygon id="path-3" points="320 173 1270 172 1270 837 320 837"></polygon>
        <mask id="mask-4" maskContentUnits="userSpaceOnUse" maskUnits="objectBoundingBox" x="0" y="0" width="950" height="665" fill="white">
            <use xlink:href="#path-3"></use>
        </mask>
        <rect id="path-5" x="9.90532859" y="173" width="300" height="770"></rect>
        <mask id="mask-6" maskContentUnits="userSpaceOnUse" maskUnits="objectBoundingBox" x="0" y="0" width="300" height="770" fill="white">
            <use xlink:href="#path-5"></use>
        </mask>
    </defs>
    <g id="ORGANISMS" stroke="none" stroke-width="1" fill="none" fill-rule="evenodd">
        <g id="Secondary-Filter">
            <rect id="Rectangle-2" fill="#FDFDFD" x="-7" y="-14" width="1287" height="855"></rect>
            <rect id="Sub-Panel" stroke="#7A8389" fill="#FFFFFF" x="10" y="71" width="1260" height="40"></rect>
            <text id="Secondary-Filtered-E" font-family="SourceSansPro-Regular, Source Sans Pro" font-size="14" font-weight="normal" fill="#7A8389">
                <tspan x="23" y="97">Secondary Filtered Elements</tspan>
            </text>
            <g id="Selector" opacity="0.3" transform="translate(310.000000, 620.000000)" stroke="#3F4C57" stroke-opacity="0.304347826" fill="#FFFFFF">
                <rect id="Rectangle-264" x="1.5" y="1.5" width="13" height="13" rx="6.5"></rect>
            </g>
            <g id="Group-2" transform="translate(10.000000, 122.000000)">
                <polygon id="SidePanel-Copy" stroke="#7A8389" fill="#FFFFFF" points="310 0 1290 0 1290 35.0177557 1290 40 310 40"></polygon>
                <rect id="SidePanel-Copy-2" stroke="#7A8389" fill="#FFFFFF" x="0" y="0" width="300" height="40"></rect>
                <g id="Status" transform="translate(10.000000, 6.000000)">
                    <g id="More-Selector" transform="translate(11.000000, 5.000000)">
                        <text id="Sort" font-family="SourceSansPro-Regular, Source Sans Pro" font-size="14" font-weight="normal" fill="#7A8389">
                            <tspan x="0" y="14">Sort</tspan>
                        </text>
                        <polygon id="Path-Copy-2" fill="#CED0D8" points="252.5 6 257 13 248 13"></polygon>
                    </g>
                    <use id="Rectangle-936" stroke="#CED0D8" mask="url(#mask-2)" stroke-width="2" xlink:href="#path-1"></use>
                </g>
            </g>
            <g id="Top-Nav">
                <polygon id="White-Nav-Bar" stroke="#979797" fill="#FFFFFF" points="0 0 1280 0 1280 60 0 60"></polygon>
                <g id="Group-2" transform="translate(1184.000000, 19.000000)" fill="#435363">
                    <text id="Username" font-family="SourceSansPro-Regular, Source Sans Pro" font-size="14" font-weight="normal">
                        <tspan x="0.229980469" y="14">Username</tspan>
                    </text>
                    <polygon id="Path-Copy" points="71.577794 7 76.0679328 14 67.0876552 14"></polygon>
                </g>
                <text id="PAGE-1-PAGE-2-PAGE-3" font-family="SourceSansPro-Semibold, Source Sans Pro" font-size="18" font-weight="500" fill="#435363">
                    <tspan x="83" y="34">PAGE 1</tspan>
                    <tspan x="136.262" y="34" font-family="SourceSansPro-Light, Source Sans Pro" font-weight="300"> </tspan>
                    <tspan x="139.844" y="34" font-family="SourceSansPro-Regular, Source Sans Pro" font-weight="normal">         </tspan>
                    <tspan x="172.568" y="34" font-family="SourceSansPro-Light, Source Sans Pro" font-weight="300">PAGE 2         PAGE 3</tspan>
                </text>
            </g>
            <text id="Other-Actions" font-family="SourceSansPro-Regular, Source Sans Pro" font-size="14" font-weight="normal" fill="#7A8389">
                <tspan x="337" y="145">Other Actions</tspan>
            </text>
            <use id="Rectangle-4" stroke="#979797" mask="url(#mask-4)" stroke-width="2" fill="#D8D8D8" xlink:href="#path-3"></use>
            <polygon id="Polygon" stroke="#979797" fill="#D8D8D8" points="42.5 11 57 19.5 57 36.5 42.5 45 28 36.5 28 19.5"></polygon>
            <use id="Rectangle-5-Copy" stroke="#7A8389" mask="url(#mask-6)" stroke-width="2" fill="#FFFFFF" xlink:href="#path-5"></use>
            <text id="Primary-Filter" font-family="SourceSansPro-Regular, Source Sans Pro" font-size="14" font-weight="normal" fill="#7A8389">
                <tspan x="27" y="199">Primary Filter</tspan>
            </text>
            <path d="M1246,93 L1237,79 L1259,79 L1250,93 L1250,100.678168 L1246,102.777778 L1246,93 Z" id="Combined-Shape-Copy-2" stroke="#7A8389"></path>
            <g id="$SIZE1464224871627" transform="translate(410.000000, 55.000000)">
                <polygon id="line" fill="#77BC1F" points="3 5 4 5 4 15.5 3 15.5"></polygon>
                <polygon id="start-arrow" fill="#77BC1F" points="0 5 7 5 7 6 0 6"></polygon>
                <polygon id="end-arrow" fill="#77BC1F" points="0 14.5 7 14.5 7 15.5 0 15.5"></polygon>
                <polygon id="81" fill="#77BC1F" points="20 0 57 0 57 22 20 22"></polygon>
                <text id="10px" font-family="Helvetica" font-size="12" font-weight="normal" line-spacing="12" fill="#FFFFFF">
                    <tspan x="25" y="17">10px</tspan>
                </text>
            </g>
            <g id="$SIZE1464224871627-Copy-2" transform="translate(410.000000, 106.000000)">
                <polygon id="line" fill="#77BC1F" points="3 5 4 5 4 15.5 3 15.5"></polygon>
                <polygon id="start-arrow" fill="#77BC1F" points="0 5 7 5 7 6 0 6"></polygon>
                <polygon id="end-arrow" fill="#77BC1F" points="0 14.5 7 14.5 7 15.5 0 15.5"></polygon>
                <polygon id="81" fill="#77BC1F" points="20 0 57 0 57 22 20 22"></polygon>
                <text id="10px" font-family="Helvetica" font-size="12" font-weight="normal" line-spacing="12" fill="#FFFFFF">
                    <tspan x="25" y="17">10px</tspan>
                </text>
            </g>
            <g id="$SIZE1464224871627-Copy-3" transform="translate(410.000000, 157.500000)">
                <polygon id="line" fill="#77BC1F" points="3 5 4 5 4 15.5 3 15.5"></polygon>
                <polygon id="start-arrow" fill="#77BC1F" points="0 5 7 5 7 6 0 6"></polygon>
                <polygon id="end-arrow" fill="#77BC1F" points="0 14.5 7 14.5 7 15.5 0 15.5"></polygon>
                <polygon id="81" fill="#77BC1F" points="20 0 57 0 57 22 20 22"></polygon>
                <text id="10px" font-family="Helvetica" font-size="12" font-weight="normal" line-spacing="12" fill="#FFFFFF">
                    <tspan x="25" y="17">10px</tspan>
                </text>
            </g>
            <g id="$SIZE1464224871627-Copy" transform="translate(309.000000, 179.000000)">
                <polygon id="line" fill="#77BC1F" points="0 6 1 6 1 14 0 14"></polygon>
                <polygon id="line-copy" fill="#77BC1F" points="11 6 12 6 12 14 11 14"></polygon>
                <polygon id="end-arrow" fill="#77BC1F" points="1 10 11 10 11 11 1 11"></polygon>
                <polygon id="81" fill="#77BC1F" points="16 0 53 0 53 22 16 22"></polygon>
                <text id="10px" font-family="Helvetica" font-size="12" font-weight="normal" line-spacing="12" fill="#FFFFFF">
                    <tspan x="21" y="17">10px</tspan>
                </text>
            </g>
            <g id="$SIZE1464224871627-Copy-2" transform="translate(-1.000000, 240.000000)">
                <polygon id="line-copy" fill="#77BC1F" points="11 6 12 6 12 14 11 14"></polygon>
                <polygon id="end-arrow" fill="#77BC1F" points="1 10 11 10 11 11 1 11"></polygon>
                <polygon id="81" fill="#77BC1F" points="16 0 53 0 53 22 16 22"></polygon>
                <text id="10px" font-family="Helvetica" font-size="12" font-weight="normal" line-spacing="12" fill="#FFFFFF">
                    <tspan x="21" y="17">10px</tspan>
                </text>
            </g>
        </g>
    </g>
</svg>