<?xml version="1.0" encoding="UTF-8" standalone="no"?>
<svg width="1280px" height="840px" viewBox="0 0 1280 840" version="1.1" xmlns="http://www.w3.org/2000/svg" xmlns:xlink="http://www.w3.org/1999/xlink" style="background: #F1F2F5;">
    <!-- Generator: Sketch 41.2 (35397) - http://www.bohemiancoding.com/sketch -->
    <title>Secondary Filter Copy</title>
    <desc>Created with Sketch.</desc>
    <defs>
        <rect id="path-1" x="0" y="0" width="281" height="30" rx="4"></rect>
        <mask id="mask-2" maskContentUnits="userSpaceOnUse" maskUnits="objectBoundingBox" x="0" y="0" width="281" height="30" fill="white">
            <use xlink:href="#path-1"></use>
        </mask>
        <rect id="path-3" x="320" y="172" width="950" height="665"></rect>
        <mask id="mask-4" maskContentUnits="userSpaceOnUse" maskUnits="objectBoundingBox" x="0" y="0" width="950" height="665" fill="white">
            <use xlink:href="#path-3"></use>
        </mask>
        <rect id="path-5" x="9.90532859" y="172" width="300" height="770"></rect>
        <mask id="mask-6" maskContentUnits="userSpaceOnUse" maskUnits="objectBoundingBox" x="0" y="0" width="300" height="770" fill="white">
            <use xlink:href="#path-5"></use>
        </mask>
    </defs>
    <g id="ORGANISMS" stroke="none" stroke-width="1" fill="none" fill-rule="evenodd">
        <g id="Secondary-Filter-Copy">
            <rect id="Rectangle-2" fill="#FDFDFD" x="-7" y="-14" width="1287" height="855"></rect>
            <rect id="Sub-Panel" fill="#F8F9FA" x="10" y="70" width="1260" height="40"></rect>
            <text id="Secondary-Filtered-E" font-family="SourceSansPro-Regular, Source Sans Pro" font-size="14" font-weight="normal" fill="#7A8389">
                <tspan x="23" y="97">Secondary Filtered Elements</tspan>
            </text>
            <g id="Selector" opacity="0.3" transform="translate(310.000000, 620.000000)" stroke="#3F4C57" stroke-opacity="0.304347826" fill="#FFFFFF">
                <rect id="Rectangle-264" x="1.5" y="1.5" width="13" height="13" rx="6.5"></rect>
            </g>
            <g id="Group-2" transform="translate(10.000000, 121.000000)">
                <polygon id="SidePanel-Copy" stroke="#7A8389" fill="#FFFFFF" points="310 0 1260 0 1260 35.0177557 1260 40 310 40"></polygon>
                <rect id="SidePanel-Copy-2" stroke="#7A8389" fill="#FFFFFF" x="0" y="0" width="300" height="40"></rect>
                <g id="Status" transform="translate(10.000000, 6.000000)">
                    <g id="More-Selector" transform="translate(11.000000, 5.000000)">
                        <text id="Sort" font-family="SourceSansPro-Regular, Source Sans Pro" font-size="14" font-weight="normal" fill="#7A8389">
                            <tspan x="0" y="14">Sort</tspan>
                        </text>
                        <polygon id="Path-Copy-2" fill="#CED0D8" points="252.5 6 257 13 248 13"></polygon>
                    </g>
                    <use id="Rectangle-936" stroke="#CED0D8" mask="url(#mask-2)" stroke-width="2" xlink:href="#path-1"></use>
                </g>
            </g>
            <g id="Top-Nav">
                <polygon id="White-Nav-Bar" stroke="#979797" fill="#FFFFFF" points="0 0 1280 0 1280 60 0 60"></polygon>
                <g id="Group-2" transform="translate(1184.000000, 19.000000)" fill="#435363">
                    <text id="Username" font-family="SourceSansPro-Regular, Source Sans Pro" font-size="14" font-weight="normal">
                        <tspan x="0.229980469" y="14">Username</tspan>
                    </text>
                    <polygon id="Path-Copy" points="71.577794 7 76.0679328 14 67.0876552 14"></polygon>
                </g>
                <text id="PAGE-1-PAGE-2-PAGE-3" font-family="SourceSansPro-Semibold, Source Sans Pro" font-size="18" font-weight="500" fill="#435363">
                    <tspan x="83" y="34">PAGE 1</tspan>
                    <tspan x="136.262" y="34" font-family="SourceSansPro-Light, Source Sans Pro" font-weight="300"> </tspan>
                    <tspan x="139.844" y="34" font-family="SourceSansPro-Regular, Source Sans Pro" font-weight="normal">         </tspan>
                    <tspan x="172.568" y="34" font-family="SourceSansPro-Light, Source Sans Pro" font-weight="300">PAGE 2         PAGE 3</tspan>
                </text>
            </g>
            <text id="Other-Actions" font-family="SourceSansPro-Regular, Source Sans Pro" font-size="14" font-weight="normal" fill="#7A8389">
                <tspan x="337" y="145">Other Actions</tspan>
            </text>
            <use id="Rectangle-4" stroke="#979797" mask="url(#mask-4)" stroke-width="2" fill="#D8D8D8" xlink:href="#path-3"></use>
            <polygon id="Polygon" stroke="#979797" fill="#D8D8D8" points="42.5 11 57 19.5 57 36.5 42.5 45 28 36.5 28 19.5"></polygon>
            <use id="Rectangle-5-Copy" stroke="#7A8389" mask="url(#mask-6)" stroke-width="2" fill="#FFFFFF" xlink:href="#path-5"></use>
            <text id="Primary-Filter" font-family="SourceSansPro-Regular, Source Sans Pro" font-size="14" font-weight="normal" fill="#7A8389">
                <tspan x="27" y="199">Primary Filter</tspan>
            </text>
            <rect id="Rectangle-2700" fill-opacity="0.449275362" fill="#57C9E8" x="1225" y="71" width="45" height="40"></rect>
            <path d="M1246,93 L1237,79 L1259,79 L1250,93 L1250,100.678168 L1246,102.777778 L1246,93 Z" id="Combined-Shape-Copy-2" stroke="#57C9E8"></path>
            <g id="Group-5" transform="translate(1031.000000, 109.000000)">
                <rect id="Rectangle-1256-Copy" fill="#F8F9FA" x="0" y="1" width="240" height="725"></rect>
                <rect id="Rectangle-5" fill="#F8F9FA" x="0" y="0" width="240" height="40"></rect>
                <text id="FILTER-BY" font-family="SourceSansPro-Regular, Source Sans Pro" font-size="14" font-weight="normal" line-spacing="32" fill="#7A8389">
                    <tspan x="91.209" y="19">FILTER BY</tspan>
                </text>
                <g id="Group-3" transform="translate(17.000000, 89.000000)">
                    <rect id="Rectangle-1953" fill-opacity="0.15" fill="#ABB3BA" x="0" y="0" width="210" height="420" rx="6"></rect>
                    <g id="Group-4" transform="translate(185.000000, 12.000000)" fill="#B2B2B2">
                        <polygon id="Triangle-90" transform="translate(5.000000, 4.666667) rotate(-270.000000) translate(-5.000000, -4.666667) " points="5 0.666666667 9.66666667 8.66666667 0.333333333 8.66666667"></polygon>
                        <polygon id="Triangle-90" transform="translate(5.000000, 36.666667) rotate(-270.000000) translate(-5.000000, -36.666667) " points="5 32.6666667 9.66666667 40.6666667 0.333333333 40.6666667"></polygon>
                        <polygon id="Triangle-90" transform="translate(5.000000, 69.666667) rotate(-270.000000) translate(-5.000000, -69.666667) " points="5 65.6666667 9.66666667 73.6666667 0.333333333 73.6666667"></polygon>
                        <polygon id="Triangle-90-Copy" transform="translate(4.666667, 164.000000) rotate(-270.000000) translate(-4.666667, -164.000000) " points="4.66666667 160 9.33333333 168 0 168"></polygon>
                        <polygon id="Triangle-90" transform="translate(5.000000, 100.666667) rotate(-270.000000) translate(-5.000000, -100.666667) " points="5 96.6666667 9.66666667 104.666667 0.333333333 104.666667"></polygon>
                        <polygon id="Triangle-90-Copy-2" transform="translate(4.666667, 195.000000) rotate(-270.000000) translate(-4.666667, -195.000000) " points="4.66666667 191 9.33333333 199 0 199"></polygon>
                        <polygon id="Triangle-90" transform="translate(5.000000, 132.666667) rotate(-270.000000) translate(-5.000000, -132.666667) " points="5 128.666667 9.66666667 136.666667 0.333333333 136.666667"></polygon>
                        <polygon id="Triangle-90-Copy-3" transform="translate(4.666667, 227.000000) rotate(-270.000000) translate(-4.666667, -227.000000) " points="4.66666667 223 9.33333333 231 0 231"></polygon>
                        <polygon id="Triangle-90-Copy-8" transform="translate(4.666667, 325.000000) rotate(-270.000000) translate(-4.666667, -325.000000) " points="4.66666667 321 9.33333333 329 0 329"></polygon>
                        <polygon id="Triangle-90-Copy-7" transform="translate(5.000000, 261.666667) rotate(-270.000000) translate(-5.000000, -261.666667) " points="5 257.666667 9.66666667 265.666667 0.333333333 265.666667"></polygon>
                        <polygon id="Triangle-90-Copy-6" transform="translate(4.666667, 356.000000) rotate(-270.000000) translate(-4.666667, -356.000000) " points="4.66666667 352 9.33333333 360 0 360"></polygon>
                        <polygon id="Triangle-90-Copy-5" transform="translate(5.000000, 293.666667) rotate(-270.000000) translate(-5.000000, -293.666667) " points="5 289.666667 9.66666667 297.666667 0.333333333 297.666667"></polygon>
                        <polygon id="Triangle-90-Copy-4" transform="translate(4.666667, 388.000000) rotate(-270.000000) translate(-4.666667, -388.000000) " points="4.66666667 384 9.33333333 392 0 392"></polygon>
                    </g>
                    <path d="M0.421044034,32.5 L209.421044,32.5" id="Line" stroke="#FFFFFF" stroke-linecap="square"></path>
                    <path d="M0.421044034,64.5 L209.421044,64.5" id="Line" stroke="#FFFFFF" stroke-linecap="square"></path>
                    <path d="M0.421044034,97.5 L209.421044,97.5" id="Line" stroke="#FFFFFF" stroke-linecap="square"></path>
                    <path d="M0.421044034,159.833333 L209.421044,159.833333" id="Line-Copy" stroke="#FFFFFF" stroke-linecap="square"></path>
                    <path d="M0.421044034,223.5 L209.421044,223.5" id="Line-Copy-3" stroke="#FFFFFF" stroke-linecap="square"></path>
                    <path d="M0.421044034,129.5 L209.421044,129.5" id="Line" stroke="#FFFFFF" stroke-linecap="square"></path>
                    <path d="M0.421044034,191.833333 L209.421044,191.833333" id="Line-Copy-2" stroke="#FFFFFF" stroke-linecap="square"></path>
                    <path d="M0.421044034,257.5 L209.421044,257.5" id="Line-Copy-8" stroke="#FFFFFF" stroke-linecap="square"></path>
                    <path d="M0.421044034,319.833333 L209.421044,319.833333" id="Line-Copy-7" stroke="#FFFFFF" stroke-linecap="square"></path>
                    <path d="M0.421044034,383.5 L209.421044,383.5" id="Line-Copy-6" stroke="#FFFFFF" stroke-linecap="square"></path>
                    <path d="M0.421044034,289.5 L209.421044,289.5" id="Line-Copy-5" stroke="#FFFFFF" stroke-linecap="square"></path>
                    <path d="M0.421044034,351.833333 L209.421044,351.833333" id="Line-Copy-4" stroke="#FFFFFF" stroke-linecap="square"></path>
                    <text id="Test-Type-Lab-Durati" font-family="SourceSansPro-Regular, Source Sans Pro" font-size="14" font-weight="normal" line-spacing="32" fill="#7A7A7A">
                        <tspan x="17" y="14">Test Type</tspan>
                        <tspan x="17" y="46">Lab Duration</tspan>
                        <tspan x="17" y="78">Assignment</tspan>
                        <tspan x="17" y="110">Flag</tspan>
                        <tspan x="17" y="142">AAC</tspan>
                        <tspan x="17" y="174">Country</tspan>
                        <tspan x="17" y="206">DO/DOG</tspan>
                        <tspan x="17" y="238">Therapy</tspan>
                        <tspan x="17" y="270">Gene</tspan>
                        <tspan x="17" y="302">OP Name</tspan>
                        <tspan x="17" y="334">Facility</tspan>
                        <tspan x="17" y="366">Alteration/AG/AGG</tspan>
                        <tspan x="17" y="398">Other</tspan>
                    </text>
                </g>
                <rect id="Rectangle-580" fill-opacity="0.2" fill="#ABB3BA" x="0" y="40" width="240" height="30"></rect>
                <text id="CLEAR" font-family="SourceSansPro-Light, Source Sans Pro" font-size="11" font-weight="300" fill="#7A8389">
                    <tspan x="109.089833" y="58">CLEAR</tspan>
                </text>
            </g>
            <g id="$SIZE1464224871627" transform="translate(410.000000, 55.000000)">
                <polygon id="line" fill="#77BC1F" points="3 5 4 5 4 15.5 3 15.5"></polygon>
                <polygon id="start-arrow" fill="#77BC1F" points="0 5 7 5 7 6 0 6"></polygon>
                <polygon id="end-arrow" fill="#77BC1F" points="0 14.5 7 14.5 7 15.5 0 15.5"></polygon>
                <polygon id="81" fill="#77BC1F" points="20 0 57 0 57 22 20 22"></polygon>
                <text id="10px" font-family="Helvetica" font-size="12" font-weight="normal" line-spacing="12" fill="#FFFFFF">
                    <tspan x="25" y="17">10px</tspan>
                </text>
            </g>
            <g id="$SIZE1464224871627-Copy-2" transform="translate(410.000000, 105.000000)">
                <polygon id="line" fill="#77BC1F" points="3 5 4 5 4 15.5 3 15.5"></polygon>
                <polygon id="start-arrow" fill="#77BC1F" points="0 5 7 5 7 6 0 6"></polygon>
                <polygon id="end-arrow" fill="#77BC1F" points="0 14.5 7 14.5 7 15.5 0 15.5"></polygon>
                <polygon id="81" fill="#77BC1F" points="20 0 57 0 57 22 20 22"></polygon>
                <text id="10px" font-family="Helvetica" font-size="12" font-weight="normal" line-spacing="12" fill="#FFFFFF">
                    <tspan x="25" y="17">10px</tspan>
                </text>
            </g>
            <g id="$SIZE1464224871627-Copy-3" transform="translate(410.000000, 156.500000)">
                <polygon id="line" fill="#77BC1F" points="3 5 4 5 4 15.5 3 15.5"></polygon>
                <polygon id="start-arrow" fill="#77BC1F" points="0 5 7 5 7 6 0 6"></polygon>
                <polygon id="end-arrow" fill="#77BC1F" points="0 14.5 7 14.5 7 15.5 0 15.5"></polygon>
                <polygon id="81" fill="#77BC1F" points="20 0 57 0 57 22 20 22"></polygon>
                <text id="10px" font-family="Helvetica" font-size="12" font-weight="normal" line-spacing="12" fill="#FFFFFF">
                    <tspan x="25" y="17">10px</tspan>
                </text>
            </g>
            <g id="$SIZE1464224871627-Copy" transform="translate(309.000000, 179.000000)">
                <polygon id="line" fill="#77BC1F" points="0 6 1 6 1 14 0 14"></polygon>
                <polygon id="line-copy" fill="#77BC1F" points="11 6 12 6 12 14 11 14"></polygon>
                <polygon id="end-arrow" fill="#77BC1F" points="1 10 11 10 11 11 1 11"></polygon>
                <polygon id="81" fill="#77BC1F" points="16 0 53 0 53 22 16 22"></polygon>
                <text id="10px" font-family="Helvetica" font-size="12" font-weight="normal" line-spacing="12" fill="#FFFFFF">
                    <tspan x="21" y="17">10px</tspan>
                </text>
            </g>
            <g id="$SIZE1464224871627-Copy-2" transform="translate(-1.000000, 228.000000)">
                <polygon id="line-copy" fill="#77BC1F" points="11 6 12 6 12 14 11 14"></polygon>
                <polygon id="end-arrow" fill="#77BC1F" points="1 10 11 10 11 11 1 11"></polygon>
                <polygon id="81" fill="#77BC1F" points="16 0 53 0 53 22 16 22"></polygon>
                <text id="10px" font-family="Helvetica" font-size="12" font-weight="normal" line-spacing="12" fill="#FFFFFF">
                    <tspan x="21" y="17">10px</tspan>
                </text>
            </g>
        </g>
    </g>
</svg>