<?xml version="1.0" encoding="UTF-8" standalone="no"?>
<svg width="1280px" height="840px" viewBox="0 0 1280 840" version="1.1" xmlns="http://www.w3.org/2000/svg" xmlns:xlink="http://www.w3.org/1999/xlink" style="background: #F1F2F5;">
    <!-- Generator: Sketch 41.2 (35397) - http://www.bohemiancoding.com/sketch -->
    <title>Secondary Filter Copy 2</title>
    <desc>Created with Sketch.</desc>
    <defs>
        <rect id="path-1" x="0" y="0" width="281" height="30" rx="4"></rect>
        <mask id="mask-2" maskContentUnits="userSpaceOnUse" maskUnits="objectBoundingBox" x="0" y="0" width="281" height="30" fill="white">
            <use xlink:href="#path-1"></use>
        </mask>
        <rect id="path-3" x="320" y="172" width="950" height="665"></rect>
        <mask id="mask-4" maskContentUnits="userSpaceOnUse" maskUnits="objectBoundingBox" x="0" y="0" width="950" height="665" fill="white">
            <use xlink:href="#path-3"></use>
        </mask>
        <rect id="path-5" x="9.90532859" y="172" width="300" height="770"></rect>
        <mask id="mask-6" maskContentUnits="userSpaceOnUse" maskUnits="objectBoundingBox" x="0" y="0" width="300" height="770" fill="white">
            <use xlink:href="#path-5"></use>
        </mask>
    </defs>
    <g id="ORGANISMS" stroke="none" stroke-width="1" fill="none" fill-rule="evenodd">
        <g id="Secondary-Filter-Copy-2">
            <rect id="Rectangle-2" fill="#FDFDFD" x="-7" y="-14" width="1287" height="855"></rect>
            <rect id="Sub-Panel" fill="#F8F9FA" x="10" y="70" width="1260" height="40"></rect>
            <text id="Secondary-Filtered-E" font-family="SourceSansPro-Regular, Source Sans Pro" font-size="14" font-weight="normal" fill="#7A8389">
                <tspan x="23" y="97">Secondary Filtered Elements</tspan>
            </text>
            <g id="Selector" opacity="0.3" transform="translate(310.000000, 620.000000)" stroke="#3F4C57" stroke-opacity="0.304347826" fill="#FFFFFF">
                <rect id="Rectangle-264" x="1.5" y="1.5" width="13" height="13" rx="6.5"></rect>
            </g>
            <g id="Group-2" transform="translate(10.000000, 121.000000)">
                <polygon id="SidePanel-Copy" stroke="#7A8389" fill="#FFFFFF" points="310 0 1260 0 1260 35.0177557 1260 40 310 40"></polygon>
                <rect id="SidePanel-Copy-2" stroke="#7A8389" fill="#FFFFFF" x="0" y="0" width="300" height="40"></rect>
                <g id="Status" transform="translate(10.000000, 6.000000)">
                    <g id="More-Selector" transform="translate(11.000000, 5.000000)">
                        <text id="Sort" font-family="SourceSansPro-Regular, Source Sans Pro" font-size="14" font-weight="normal" fill="#7A8389">
                            <tspan x="0" y="14">Sort</tspan>
                        </text>
                        <polygon id="Path-Copy-2" fill="#CED0D8" points="252.5 6 257 13 248 13"></polygon>
                    </g>
                    <use id="Rectangle-936" stroke="#CED0D8" mask="url(#mask-2)" stroke-width="2" xlink:href="#path-1"></use>
                </g>
            </g>
            <g id="Top-Nav">
                <polygon id="White-Nav-Bar" stroke="#979797" fill="#FFFFFF" points="0 0 1280 0 1280 60 0 60"></polygon>
                <g id="Group-2" transform="translate(1184.000000, 19.000000)" fill="#435363">
                    <text id="Username" font-family="SourceSansPro-Regular, Source Sans Pro" font-size="14" font-weight="normal">
                        <tspan x="0.229980469" y="14">Username</tspan>
                    </text>
                    <polygon id="Path-Copy" points="71.577794 7 76.0679328 14 67.0876552 14"></polygon>
                </g>
                <text id="PAGE-1-PAGE-2-PAGE-3" font-family="SourceSansPro-Semibold, Source Sans Pro" font-size="18" font-weight="500" fill="#435363">
                    <tspan x="83" y="34">PAGE 1</tspan>
                    <tspan x="136.262" y="34" font-family="SourceSansPro-Light, Source Sans Pro" font-weight="300"> </tspan>
                    <tspan x="139.844" y="34" font-family="SourceSansPro-Regular, Source Sans Pro" font-weight="normal">         </tspan>
                    <tspan x="172.568" y="34" font-family="SourceSansPro-Light, Source Sans Pro" font-weight="300">PAGE 2         PAGE 3</tspan>
                </text>
            </g>
            <text id="Other-Actions" font-family="SourceSansPro-Regular, Source Sans Pro" font-size="14" font-weight="normal" fill="#7A8389">
                <tspan x="337" y="145">Other Actions</tspan>
            </text>
            <use id="Rectangle-4" stroke="#979797" mask="url(#mask-4)" stroke-width="2" fill="#D8D8D8" xlink:href="#path-3"></use>
            <polygon id="Polygon" stroke="#979797" fill="#D8D8D8" points="42.5 11 57 19.5 57 36.5 42.5 45 28 36.5 28 19.5"></polygon>
            <use id="Rectangle-5-Copy" stroke="#7A8389" mask="url(#mask-6)" stroke-width="2" fill="#FFFFFF" xlink:href="#path-5"></use>
            <text id="Primary-Filter" font-family="SourceSansPro-Regular, Source Sans Pro" font-size="14" font-weight="normal" fill="#7A8389">
                <tspan x="27" y="199">Primary Filter</tspan>
            </text>
            <rect id="Rectangle-2700" fill-opacity="0.449275362" fill="#57C9E8" x="1225" y="71" width="45" height="40"></rect>
            <path d="M1246,93 L1237,79 L1259,79 L1250,93 L1250,100.678168 L1246,102.777778 L1246,93 Z" id="Combined-Shape-Copy-2" stroke="#57C9E8"></path>
            <g id="Group-2" transform="translate(1031.000000, 111.000000)">
                <g id="Group-Copy-2">
                    <rect id="Rectangle-1256-Copy" fill="#F8F9FA" x="0" y="0" width="240" height="725"></rect>
                    <text id="ALTERATION/AG/AGG" font-family="SourceSansPro-Regular, Source Sans Pro" font-size="14" font-weight="normal" line-spacing="32" fill="#7A8389">
                        <tspan x="57.784" y="18">ALTERATION/AG/AGG</tspan>
                    </text>
                    <rect id="Rectangle-580" fill-opacity="0.2" fill="#ABB3BA" x="0" y="39" width="240" height="30"></rect>
                    <text id="CLEAR" font-family="SourceSansPro-Light, Source Sans Pro" font-size="11" font-weight="300" fill="#435363">
                        <tspan x="109.089833" y="57">CLEAR</tspan>
                    </text>
                </g>
                <g id="Group-3-Copy" transform="translate(12.000000, 152.000000)">
                    <rect id="Rectangle-1953" fill-opacity="0.15" fill="#ABB3BA" x="0" y="0" width="220" height="224.5" rx="6"></rect>
                    <path d="M0.421044034,32.5 L219.421044,32.5" id="Line" stroke="#FFFFFF" stroke-linecap="square"></path>
                    <path d="M0.421044034,64.5 L219.421044,64.5" id="Line" stroke="#FFFFFF" stroke-linecap="square"></path>
                    <path d="M0.421044034,97.5 L219.421044,97.5" id="Line" stroke="#FFFFFF" stroke-linecap="square"></path>
                    <path d="M0.421044034,159.833333 L219.421044,159.833333" id="Line-Copy" stroke="#FFFFFF" stroke-linecap="square"></path>
                    <path d="M0.421044034,129.5 L219.421044,129.5" id="Line" stroke="#FFFFFF" stroke-linecap="square"></path>
                    <path d="M0.421044034,191.833333 L219.421044,191.833333" id="Line-Copy-2" stroke="#FFFFFF" stroke-linecap="square"></path>
                </g>
                <rect id="Rectangle-5" fill="#F8F9FA" x="0" y="69" width="240" height="59"></rect>
                <rect id="Rectangle-936" fill-opacity="0.25" fill="#ABB3BA" x="10" y="84" width="220" height="30" rx="4"></rect>
                <text id="GENE" font-family="SourceSansPro-Light, Source Sans Pro" font-size="14" font-weight="300" fill="#435363">
                    <tspan x="34" y="103">GENE</tspan>
                </text>
                <text id="BACK-TO-FILTER" font-family="SourceSansPro-Regular, Source Sans Pro" font-size="14" font-weight="normal" fill="#57C9E8">
                    <tspan x="34" y="410">BACK TO FILTER</tspan>
                </text>
                <text id="CREBBP_FUNCUNK_STAND" font-family="SourceSansPro-Regular, Source Sans Pro" font-size="14" font-weight="normal" line-spacing="32" fill="#7A7A7A">
                    <tspan x="23" y="166">CREBBP_FUNCUNK_STAND… (5)</tspan>
                    <tspan x="23" y="198">CREBBP_GENE (42)</tspan>
                    <tspan x="23" y="230">CREBBP_INACTIVATING (19)</tspan>
                    <tspan x="23" y="262">CREBBP_FUNCUNK_STAN… (61)</tspan>
                    <tspan x="23" y="294">EGFR_GENE (67)</tspan>
                    <tspan x="23" y="326">EGFR_INACTIVATING (23)</tspan>
                    <tspan x="23" y="358">EGFR_FUNCUNK_STANDARD (6) </tspan>
                </text>
                <text id="Recent-History" font-family="SourceSansPro-Regular, Source Sans Pro" font-size="11" font-weight="normal" fill="#435363">
                    <tspan x="15" y="145">Recent History</tspan>
                </text>
                <path d="M25.3836532,100.256514 C25.744418,99.6463295 25.952016,98.9284652 25.952016,98.1616555 C25.952016,95.9317078 24.0779377,94.0000002 21.9152476,94.0000002 C19.7525575,93.9993476 18,95.8070605 18,98.0370082 C18,100.266303 19.8740783,102.198664 22.0361355,102.198664 C22.7557663,102.198664 23.4285611,101.997009 24.0076835,101.647866 L26.4121494,104.128413 C26.6475959,104.370529 27.0292471,104.370529 27.2640607,104.128413 L27.8609049,103.513008 C28.0957185,103.270892 28.0102742,102.964821 27.7754606,102.722704 L25.3836532,100.256514 Z M19.2050811,98.0375993 C19.2050811,96.4933123 20.4183901,95.2420873 21.9152476,95.2420873 C23.4127381,95.2420873 24.746935,96.6173252 24.746935,98.1622649 C24.746935,99.7058992 23.532993,100.957777 22.0361355,100.957777 C20.538645,100.957124 19.2050811,99.5812336 19.2050811,98.0375993 L19.2050811,98.0375993 Z" id="Fill-2-Copy-2" fill="#435363"></path>
            </g>
            <g id="$SIZE1464224871627" transform="translate(410.000000, 55.000000)">
                <polygon id="line" fill="#77BC1F" points="3 5 4 5 4 15.5 3 15.5"></polygon>
                <polygon id="start-arrow" fill="#77BC1F" points="0 5 7 5 7 6 0 6"></polygon>
                <polygon id="end-arrow" fill="#77BC1F" points="0 14.5 7 14.5 7 15.5 0 15.5"></polygon>
                <polygon id="81" fill="#77BC1F" points="20 0 57 0 57 22 20 22"></polygon>
                <text id="10px" font-family="Helvetica" font-size="12" font-weight="normal" line-spacing="12" fill="#FFFFFF">
                    <tspan x="25" y="17">10px</tspan>
                </text>
            </g>
            <g id="$SIZE1464224871627-Copy-2" transform="translate(410.000000, 105.000000)">
                <polygon id="line" fill="#77BC1F" points="3 5 4 5 4 15.5 3 15.5"></polygon>
                <polygon id="start-arrow" fill="#77BC1F" points="0 5 7 5 7 6 0 6"></polygon>
                <polygon id="end-arrow" fill="#77BC1F" points="0 14.5 7 14.5 7 15.5 0 15.5"></polygon>
                <polygon id="81" fill="#77BC1F" points="20 0 57 0 57 22 20 22"></polygon>
                <text id="10px" font-family="Helvetica" font-size="12" font-weight="normal" line-spacing="12" fill="#FFFFFF">
                    <tspan x="25" y="17">10px</tspan>
                </text>
            </g>
            <g id="$SIZE1464224871627-Copy-3" transform="translate(410.000000, 156.500000)">
                <polygon id="line" fill="#77BC1F" points="3 5 4 5 4 15.5 3 15.5"></polygon>
                <polygon id="start-arrow" fill="#77BC1F" points="0 5 7 5 7 6 0 6"></polygon>
                <polygon id="end-arrow" fill="#77BC1F" points="0 14.5 7 14.5 7 15.5 0 15.5"></polygon>
                <polygon id="81" fill="#77BC1F" points="20 0 57 0 57 22 20 22"></polygon>
                <text id="10px" font-family="Helvetica" font-size="12" font-weight="normal" line-spacing="12" fill="#FFFFFF">
                    <tspan x="25" y="17">10px</tspan>
                </text>
            </g>
            <g id="$SIZE1464224871627-Copy" transform="translate(309.000000, 179.000000)">
                <polygon id="line" fill="#77BC1F" points="0 6 1 6 1 14 0 14"></polygon>
                <polygon id="line-copy" fill="#77BC1F" points="11 6 12 6 12 14 11 14"></polygon>
                <polygon id="end-arrow" fill="#77BC1F" points="1 10 11 10 11 11 1 11"></polygon>
                <polygon id="81" fill="#77BC1F" points="16 0 53 0 53 22 16 22"></polygon>
                <text id="10px" font-family="Helvetica" font-size="12" font-weight="normal" line-spacing="12" fill="#FFFFFF">
                    <tspan x="21" y="17">10px</tspan>
                </text>
            </g>
            <g id="$SIZE1464224871627-Copy-2" transform="translate(-1.000000, 228.000000)">
                <polygon id="line-copy" fill="#77BC1F" points="11 6 12 6 12 14 11 14"></polygon>
                <polygon id="end-arrow" fill="#77BC1F" points="1 10 11 10 11 11 1 11"></polygon>
                <polygon id="81" fill="#77BC1F" points="16 0 53 0 53 22 16 22"></polygon>
                <text id="10px" font-family="Helvetica" font-size="12" font-weight="normal" line-spacing="12" fill="#FFFFFF">
                    <tspan x="21" y="17">10px</tspan>
                </text>
            </g>
        </g>
    </g>
</svg>