<?xml version="1.0" encoding="UTF-8" standalone="no"?>
<svg width="1280px" height="840px" viewBox="0 0 1280 840" version="1.1" xmlns="http://www.w3.org/2000/svg" xmlns:xlink="http://www.w3.org/1999/xlink" style="background: #F1F2F5;">
    <!-- Generator: Sketch 41.2 (35397) - http://www.bohemiancoding.com/sketch -->
    <title>tree mr2</title>
    <desc>Created with Sketch.</desc>
    <defs>
        <rect id="path-1" x="0" y="0" width="126" height="30" rx="4"></rect>
        <mask id="mask-2" maskContentUnits="userSpaceOnUse" maskUnits="objectBoundingBox" x="0" y="0" width="126" height="30" fill="white">
            <use xlink:href="#path-1"></use>
        </mask>
        <rect id="path-3" x="290" y="184" width="980" height="649"></rect>
        <mask id="mask-4" maskContentUnits="userSpaceOnUse" maskUnits="objectBoundingBox" x="0" y="0" width="980" height="649" fill="white">
            <use xlink:href="#path-3"></use>
        </mask>
    </defs>
    <g id="ORGANISMS" stroke="none" stroke-width="1" fill="none" fill-rule="evenodd">
        <g id="tree-mr2">
            <rect id="Rectangle-2" fill="#FDFDFD" x="0" y="0" width="1287" height="855"></rect>
            <rect id="Sub-Panel" stroke="#7A8389" fill="#FFFFFF" x="10" y="71" width="1260" height="40"></rect>
            <text id="Secondary-Filtered-E" font-family="SourceSansPro-Regular, Source Sans Pro" font-size="14" font-weight="normal" fill="#7A8389">
                <tspan x="23" y="97">Secondary Filtered Elements</tspan>
            </text>
            <g id="Selector" opacity="0.3" transform="translate(310.000000, 620.000000)" stroke="#3F4C57" stroke-opacity="0.304347826" fill="#FFFFFF">
                <rect id="Rectangle-264" x="1.5" y="1.5" width="13" height="13" rx="6.5"></rect>
            </g>
            <g id="Group-2" transform="translate(10.000000, 121.000000)">
                <rect id="SidePanel-Copy-2" fill="#FFFFFF" x="0" y="0" width="270" height="734"></rect>
                <g id="Status" transform="translate(10.000000, 11.000000)" stroke="#CED0D8" stroke-width="2">
                    <use id="Rectangle-936" mask="url(#mask-2)" xlink:href="#path-1"></use>
                </g>
            </g>
            <path d="M266.989281,152.437025 L260.009148,145.787233 L266.989281,139.137441 C267.297857,138.843044 267.2472,138.406531 266.877617,138.16102 C266.508034,137.915508 265.956791,137.955309 265.648215,138.249274 L258.202631,145.343149 C258.066999,145.471637 258,145.629543 258,145.787233 C258,145.945139 258.066999,146.102829 258.202631,146.231317 L265.648215,153.325192 C265.956791,153.619157 266.507761,153.658958 266.877617,153.413447 C267.248289,153.167503 267.298402,152.731855 266.989281,152.437025" id="Imported-Layers-Copy-27" fill="#57C9E8"></path>
            <g id="Top-Nav">
                <polygon id="White-Nav-Bar" stroke="#979797" fill="#FFFFFF" points="0 0 1280 0 1280 60 0 60"></polygon>
                <g id="Group-2" transform="translate(1185.000000, 19.000000)" fill="#435363">
                    <text id="Username" font-family="SourceSansPro-Regular, Source Sans Pro" font-size="14" font-weight="normal">
                        <tspan x="-0.770019531" y="14">Username</tspan>
                    </text>
                    <polygon id="Path-Copy" points="70.577794 7 75.0679328 14 66.0876552 14"></polygon>
                </g>
                <text id="PAGE-1-PAGE-2-PAGE-3" font-family="SourceSansPro-Semibold, Source Sans Pro" font-size="18" font-weight="500" fill="#435363">
                    <tspan x="83" y="34">PAGE 1</tspan>
                    <tspan x="136.262" y="34" font-family="SourceSansPro-Light, Source Sans Pro" font-weight="300"> </tspan>
                    <tspan x="139.844" y="34" font-family="SourceSansPro-Regular, Source Sans Pro" font-weight="normal">         </tspan>
                    <tspan x="172.568" y="34" font-family="SourceSansPro-Light, Source Sans Pro" font-weight="300">PAGE 2         PAGE 3</tspan>
                </text>
                <polygon id="Polygon" stroke="#979797" fill="#D8D8D8" points="42.5 11 57 19.5 57 36.5 42.5 45 28 36.5 28 19.5"></polygon>
            </g>
            <use id="Rectangle-4" stroke="#979797" mask="url(#mask-4)" stroke-width="2" fill="#D8D8D8" xlink:href="#path-3"></use>
            <g id="Data-View-Header" transform="translate(290.000000, 150.000000)" stroke="#7A8389" fill="#FFFFFF">
                <rect id="button-bg" x="0" y="0" width="980" height="41"></rect>
            </g>
            <rect id="button-bg" stroke="#7A8389" fill="#FFFFFF" x="290" y="111" width="980" height="40"></rect>
            <text id="Title" font-family="SourceSansPro-Light, Source Sans Pro" font-size="21" font-weight="300" line-spacing="25" fill="#3F4C57">
                <tspan x="300" y="138">Title</tspan>
            </text>
            <text id="Tab" font-family="SourceSansPro-Light, Source Sans Pro" font-size="21" font-weight="300" line-spacing="25" fill="#3F4C57">
                <tspan x="300" y="178">Tab</tspan>
            </text>
            <path d="M290.5,191.458187 L1261.5,829.5" id="Line" stroke="#979797" stroke-linecap="square"></path>
            <path d="M296.5,825.5 L1271.5,191.458187" id="Line" stroke="#979797" stroke-linecap="square"></path>
            <g id="More-Selector" transform="translate(31.000000, 138.000000)">
                <text id="Sort" font-family="SourceSansPro-Regular, Source Sans Pro" font-size="14" font-weight="normal" fill="#7A8389">
                    <tspan x="0" y="14">Sort</tspan>
                </text>
                <polygon id="Path-Copy-2" fill="#CED0D8" points="97.5 4 102 11 93 11"></polygon>
            </g>
        </g>
    </g>
</svg>